<svg xmlns="http://www.w3.org/2000/svg" width="1200" height="630" viewBox="0 0 1200 630"><rect width="1200" height="630" fill="#D8512A"></rect><path d="M91.5 108.0 92.12 106.14H104.88L104.24000000000001 108.0ZM106.42 116.1 109.02 117.04 108.72 118.0H99.22L99.5 117.04L103.18 116.14L101.12 93.62H102.26L87.38 116.14L90.2 117.04L89.92 118.0H81.36L81.66 117.04L84.96 116.14L102.26 90.56H103.88Z M120.96 101.66Q119.74 101.66 118.71 102.59Q117.67999999999999 103.52 116.92999999999999 105.03Q116.17999999999999 106.53999999999999 115.75999999999999 108.38Q115.34 110.22 115.34 112.06Q115.34 114.24 116.06 115.13Q116.78 116.02 118.2 116.02Q119.1 116.02 119.94 115.66999999999999Q120.78 115.32 121.6 114.5Q122.42 113.68 123.17999999999999 112.26H124.42Q123.38 114.54 122.3 115.89Q121.22 117.24 120.00999999999999 117.82Q118.8 118.4 117.3 118.4Q114.9 118.4 113.6 117.05000000000001Q112.3 115.7 112.3 112.9Q112.3 110.22 113.1 107.88Q113.89999999999999 105.53999999999999 115.28999999999999 103.75999999999999Q116.67999999999999 101.98 118.53 100.98Q120.38 99.98 122.46 99.98Q124.4 99.98 125.39 100.78999999999999Q126.38 101.6 126.38 102.66Q126.38 103.5 125.86 103.94Q125.34 104.38 124.62 104.4Q124.3 104.4 123.91999999999999 103.99000000000001Q123.53999999999999 103.58 123.06 103.02Q122.58 102.46 122.06 102.06Q121.53999999999999 101.66 120.96 101.66Z M136.08 101.66Q134.86 101.66 133.83 102.59Q132.8 103.52 132.05 105.03Q131.3 106.53999999999999 130.88 108.38Q130.46 110.22 130.46 112.06Q130.46 114.24 131.18 115.13Q131.9 116.02 133.32 116.02Q134.22 116.02 135.06 115.66999999999999Q135.9 115.32 136.72 114.5Q137.54 113.68 138.3 112.26H139.54Q138.5 114.54 137.42000000000002 115.89Q136.34 117.24 135.13 117.82Q133.92000000000002 118.4 132.42000000000002 118.4Q130.02 118.4 128.72 117.05000000000001Q127.42 115.7 127.42 112.9Q127.42 110.22 128.22 107.88Q129.02 105.53999999999999 130.41000000000003 103.75999999999999Q131.8 101.98 133.65 100.98Q135.5 99.98 137.58 99.98Q139.52 99.98 140.51 100.78999999999999Q141.5 101.6 141.5 102.66Q141.5 103.5 140.98000000000002 103.94Q140.46 104.38 139.74 104.4Q139.42000000000002 104.4 139.04000000000002 103.99000000000001Q138.66 103.58 138.18 103.02Q137.7 102.46 137.18 102.06Q136.66 101.66 136.08 101.66Z M152.45999999999998 99.98Q154.22 99.98 155.45999999999998 100.71000000000001Q156.7 101.44 157.35999999999999 102.78Q158.01999999999998 104.12 158.01999999999998 106.02Q158.01999999999998 108.44 157.26999999999998 110.67Q156.51999999999998 112.9 155.19 114.64Q153.85999999999999 116.38 152.07 117.39Q150.28 118.4 148.18 118.4Q146.45999999999998 118.4 145.20999999999998 117.67Q143.95999999999998 116.94 143.29 115.59Q142.62 114.24 142.62 112.36Q142.62 109.94 143.37 107.72Q144.12 105.5 145.45999999999998 103.75999999999999Q146.79999999999998 102.02 148.58999999999997 101.0Q150.38 99.98 152.45999999999998 99.98ZM148.23999999999998 116.86Q149.35999999999999 116.86 150.37 116.18Q151.38 115.5 152.23 114.34Q153.07999999999998 113.18 153.70999999999998 111.69Q154.34 110.2 154.69 108.55000000000001Q155.04 106.9 155.04 105.3Q155.04 103.38 154.39999999999998 102.44999999999999Q153.76 101.52 152.42 101.52Q151.29999999999998 101.52 150.27999999999997 102.19999999999999Q149.26 102.88 148.41 104.03999999999999Q147.56 105.2 146.93 106.69Q146.29999999999998 108.18 145.95 109.83000000000001Q145.6 111.48 145.6 113.1Q145.6 114.98 146.25 115.92Q146.9 116.86 148.23999999999998 116.86Z M171.11999999999998 117.12 173.38 109.96Q171.85999999999999 112.64 170.62 114.32Q169.38 116.0 168.32999999999998 116.88Q167.27999999999997 117.76 166.34999999999997 118.08000000000001Q165.42 118.4 164.48 118.4Q162.95999999999998 118.4 162.26 117.72Q161.55999999999997 117.04 161.55999999999997 115.9Q161.55999999999997 115.24 161.77999999999997 114.33Q161.99999999999997 113.42 162.49999999999997 112.14L166.39999999999998 101.86L166.92 102.74Q166.2 102.7 165.26999999999998 103.02000000000001Q164.33999999999997 103.34 163.33999999999997 103.99000000000001Q162.33999999999997 104.64 161.33999999999997 105.58L160.61999999999998 104.82Q162.2 102.92 163.48999999999998 101.88Q164.77999999999997 100.84 165.88 100.41Q166.98 99.98 167.94 99.98Q168.85999999999999 99.98 169.25 100.35Q169.64 100.72 169.35999999999999 101.46000000000001L164.89999999999998 113.28Q164.73999999999998 113.74 164.64 114.13Q164.54 114.52 164.54 114.82Q164.54 115.32 164.87 115.59Q165.2 115.86 165.88 115.86Q166.7 115.86 167.79 115.17Q168.88 114.48 170.02999999999997 113.16Q171.17999999999998 111.84 172.21999999999997 109.97Q173.26 108.1 174.01999999999998 105.76L175.77999999999997 100.38H178.67999999999998L173.73999999999998 116.42L173.61999999999998 115.72Q174.32 115.8 175.23 115.55Q176.14 115.3 177.14 114.75Q178.14 114.2 179.14 113.36L179.73999999999998 114.14Q177.45999999999998 116.62 175.77999999999997 117.51Q174.1 118.4 172.79999999999998 118.4Q171.67999999999998 118.4 171.29999999999998 118.09Q170.92 117.78 171.11999999999998 117.12Z M181.82 105.86 181.2 105.6Q181.98 103.42 182.96999999999997 102.21000000000001Q183.95999999999998 101.0 185.11999999999998 100.5Q186.27999999999997 100.0 187.51999999999998 100.0Q187.89999999999998 100.0 188.26 100.03999999999999Q188.61999999999998 100.08 188.97999999999996 100.15Q189.33999999999997 100.22 189.7 100.34L187.05999999999997 108.76H187.07999999999998Q188.1 106.9 189.2 105.31Q190.29999999999998 103.72 191.48999999999998 102.53999999999999Q192.67999999999998 101.36 193.92999999999998 100.69999999999999Q195.17999999999998 100.03999999999999 196.49999999999997 100.03999999999999Q198.23999999999998 100.03999999999999 198.92999999999998 100.8Q199.61999999999998 101.56 199.61999999999998 102.76Q199.61999999999998 103.42 199.40999999999997 104.25999999999999Q199.2 105.1 198.77999999999997 106.16L194.71999999999997 116.54L194.67999999999998 115.7Q195.38 115.72 196.23 115.45Q197.07999999999998 115.18 198.01999999999998 114.64Q198.95999999999998 114.1 199.88 113.36L200.54 114.14Q198.99999999999997 115.76 197.70999999999998 116.7Q196.42 117.64 195.35999999999999 118.02000000000001Q194.29999999999998 118.4 193.35999999999999 118.4Q192.05999999999997 118.4 191.74999999999997 117.99000000000001Q191.43999999999997 117.58 191.92 116.4L196.21999999999997 105.48Q196.44 104.94 196.56 104.5Q196.67999999999998 104.06 196.67999999999998 103.72Q196.67999999999998 103.18 196.32 102.87Q195.95999999999998 102.56 195.1 102.56Q194.04 102.56 192.77999999999997 103.4Q191.51999999999998 104.24 190.27999999999997 105.72999999999999Q189.04 107.22 187.98999999999998 109.17Q186.93999999999997 111.12 186.27999999999997 113.3L184.82 118.0H181.93999999999997L186.57999999999998 102.66Q186.49999999999997 102.66 186.44 102.66Q186.38 102.66 186.29999999999998 102.66Q185.48 102.66 184.73999999999998 102.94Q183.99999999999997 103.22 183.27999999999997 103.91Q182.55999999999997 104.6 181.82 105.86Z M204.14 102.12 204.45999999999998 100.38H214.98L214.72 102.12ZM207.2 113.46Q207.1 113.82 207.02999999999997 114.11Q206.95999999999998 114.4 206.92 114.63Q206.88 114.86 206.88 115.02Q206.88 115.38 207.01 115.53999999999999Q207.14 115.7 207.38 115.7Q207.79999999999998 115.7 208.52999999999997 115.24000000000001Q209.26 114.78 210.19 113.93Q211.12 113.08 212.12 111.86L212.95999999999998 112.54Q212.0 113.88 211.07 114.94999999999999Q210.14 116.02 209.26 116.78999999999999Q208.38 117.56 207.57 117.96000000000001Q206.76 118.36 206.01999999999998 118.36Q205.12 118.36 204.59 117.84Q204.06 117.32 204.06 116.08Q204.06 115.54 204.18 114.80000000000001Q204.29999999999998 114.06 204.57999999999998 113.08L209.22 96.78H212.04Z M224.96 116.94 227.2 110.22H227.56Q225.94 112.62 224.66 114.2Q223.38 115.78 222.32999999999998 116.69Q221.28 117.6 220.4 117.97999999999999Q219.52 118.36 218.68 118.36Q217.52 118.36 216.65 117.93Q215.78 117.5 215.3 116.59Q214.82 115.68 214.82 114.24Q214.82 112.66 215.42000000000002 110.78999999999999Q216.02 108.92 217.09 107.07Q218.16 105.22 219.61 103.67Q221.06 102.12 222.78 101.19Q224.5 100.25999999999999 226.38 100.25999999999999Q227.7 100.25999999999999 228.53 100.78Q229.36 101.3 229.96 102.32L229.28 103.42Q229.0 102.74 228.36 102.3Q227.72 101.86 226.78 101.86Q225.28 101.86 223.95 102.75999999999999Q222.62 103.66 221.51 105.11Q220.4 106.56 219.60000000000002 108.21000000000001Q218.8 109.86 218.36 111.39Q217.92 112.92 217.92 113.98Q217.92 114.94 218.45999999999998 115.41Q219.0 115.88 219.84 115.88Q220.58 115.88 221.7 115.21000000000001Q222.82 114.54 224.01 113.38Q225.2 112.22 226.23 110.66Q227.26 109.1 227.86 107.34L229.9 101.0L232.32 100.38H233.0L227.68 116.56L227.26 115.72Q227.96 115.82 228.87 115.57Q229.78 115.32 230.79000000000002 114.75999999999999Q231.8 114.2 232.78 113.36L233.4 114.14Q231.06 116.56 229.4 117.48Q227.74 118.4 226.44 118.4Q225.5 118.4 225.11 118.01Q224.72 117.62 224.96 116.94Z M238.84 111.56Q238.57999999999998 112.38 238.46999999999997 113.07Q238.35999999999999 113.76 238.35999999999999 114.32Q238.35999999999999 115.6 238.98 116.25999999999999Q239.6 116.92 240.76 116.92Q241.88 116.92 243.03 116.22Q244.18 115.52 245.20999999999998 114.35Q246.23999999999998 113.18 247.04 111.69Q247.84 110.2 248.3 108.6Q248.76 107.0 248.76 105.46Q248.76 104.08 248.18 103.36Q247.6 102.64 246.45999999999998 102.64Q245.7 102.64 244.85 103.06Q244.0 103.48 243.14 104.23Q242.28 104.98 241.51 105.96000000000001Q240.73999999999998 106.94 240.14 108.06Q239.54 109.18 239.2 110.36ZM241.66 92.66Q241.28 92.36 240.86 92.08Q240.44 91.8 239.95999999999998 91.56Q239.48 91.32 238.9 91.12L239.07999999999998 90.46000000000001L244.82 89.4H245.35999999999999L239.9 107.34L239.84 106.74Q241.34 104.34 242.75 102.86Q244.16 101.38 245.45999999999998 100.68Q246.76 99.98 247.89999999999998 99.98Q249.9 99.98 250.92000000000002 101.30000000000001Q251.94 102.62 251.94 104.62Q251.94 106.68 251.31 108.68Q250.68 110.68 249.57999999999998 112.43Q248.48 114.18 247.05 115.52000000000001Q245.62 116.86 244.0 117.63Q242.38 118.4 240.7 118.4Q238.35999999999999 118.4 237.04999999999998 117.09Q235.73999999999998 115.78 235.73999999999998 113.6Q235.73999999999998 113.0 235.85999999999999 112.34Q235.98 111.68 236.17999999999998 110.98Z M254.36 116.94 259.72 102.18 260.34 102.76Q259.66 102.74 258.77 103.05Q257.88 103.36 256.90999999999997 103.99000000000001Q255.94 104.62 254.98 105.53999999999999L254.32 104.8Q255.88 102.86 257.14 101.82Q258.4 100.78 259.45 100.38Q260.5 99.98 261.38 99.98Q262.26 99.98 262.64 100.34Q263.02 100.7 262.76 101.44L257.38 116.54L256.98 115.7Q257.68 115.76 258.58000000000004 115.52000000000001Q259.48 115.28 260.47 114.73Q261.46 114.18 262.42 113.36L263.04 114.16Q261.52 115.8 260.26 116.72Q259.0 117.64 257.96000000000004 118.02000000000001Q256.92 118.4 256.0 118.4Q254.84 118.4 254.45 118.06Q254.06 117.72 254.36 116.94ZM261.06 91.92Q261.06 91.24 261.37 90.69Q261.68 90.14 262.24 89.82Q262.8 89.5 263.56 89.5Q264.64 89.5 265.28999999999996 90.14Q265.94 90.78 265.94 91.75999999999999Q265.94 92.44 265.62 92.99Q265.3 93.53999999999999 264.75 93.86Q264.2 94.18 263.44 94.18Q262.34 94.18 261.7 93.54Q261.06 92.9 261.06 91.92Z M272.38 92.64Q272.02 92.34 271.62 92.07Q271.22 91.8 270.74 91.55Q270.26 91.3 269.68 91.1L269.88 90.44L275.64 89.4H276.16L268.0 116.36L267.68 115.7Q268.40000000000003 115.76 269.3 115.52000000000001Q270.2 115.28 271.19 114.73Q272.18 114.18 273.14 113.36L273.76 114.16Q272.24 115.8 270.98 116.72Q269.72 117.64 268.68 118.02000000000001Q267.64 118.4 266.72 118.4Q265.7 118.4 265.25 118.08000000000001Q264.8 117.76 265.04 116.94Z M276.18 116.94 281.54 102.18 282.16 102.76Q281.48 102.74 280.59000000000003 103.05Q279.70000000000005 103.36 278.73 103.99000000000001Q277.76000000000005 104.62 276.8 105.53999999999999L276.14000000000004 104.8Q277.70000000000005 102.86 278.96000000000004 101.82Q280.22 100.78 281.27000000000004 100.38Q282.32000000000005 99.98 283.20000000000005 99.98Q284.08000000000004 99.98 284.46000000000004 100.34Q284.84000000000003 100.7 284.58000000000004 101.44L279.20000000000005 116.54L278.8 115.7Q279.5 115.76 280.4 115.52000000000001Q281.3 115.28 282.29 114.73Q283.28000000000003 114.18 284.24 113.36L284.86 114.16Q283.34000000000003 115.8 282.08000000000004 116.72Q280.82000000000005 117.64 279.78000000000003 118.02000000000001Q278.74 118.4 277.82000000000005 118.4Q276.66 118.4 276.27 118.06Q275.88 117.72 276.18 116.94ZM282.88 91.92Q282.88 91.24 283.19 90.69Q283.5 90.14 284.06 89.82Q284.62 89.5 285.38 89.5Q286.46000000000004 89.5 287.11 90.14Q287.76000000000005 90.78 287.76000000000005 91.75999999999999Q287.76000000000005 92.44 287.44000000000005 92.99Q287.12 93.53999999999999 286.57000000000005 93.86Q286.02000000000004 94.18 285.26000000000005 94.18Q284.16 94.18 283.52 93.54Q282.88 92.9 282.88 91.92Z M288.6 102.12 288.92 100.38H299.44L299.18 102.12ZM291.66 113.46Q291.56 113.82 291.49 114.11Q291.42 114.4 291.38 114.63Q291.34 114.86 291.34 115.02Q291.34 115.38 291.47 115.53999999999999Q291.6 115.7 291.84 115.7Q292.26 115.7 292.99 115.24000000000001Q293.72 114.78 294.65 113.93Q295.58 113.08 296.58 111.86L297.42 112.54Q296.46 113.88 295.53 114.94999999999999Q294.6 116.02 293.72 116.78999999999999Q292.84 117.56 292.03 117.96000000000001Q291.22 118.36 290.48 118.36Q289.58 118.36 289.04999999999995 117.84Q288.52 117.32 288.52 116.08Q288.52 115.54 288.64 114.80000000000001Q288.76 114.06 289.04 113.08L293.68 96.78H296.5Z M300.94 107.52 299.98 107.4Q300.40000000000003 105.2 300.95000000000005 103.75999999999999Q301.5 102.32 302.15 101.49Q302.8 100.66 303.57000000000005 100.32Q304.34000000000003 99.98 305.2 99.98Q305.66 99.98 305.99 100.2Q306.32 100.42 306.6 100.97999999999999Q306.88 101.53999999999999 307.12 102.58Q307.40000000000003 103.62 307.75 105.71000000000001Q308.1 107.8 308.58000000000004 111.17Q309.06 114.54 309.66 119.42L307.02 121.38Q306.62 118.12 306.29 115.68Q305.96000000000004 113.24 305.70000000000005 111.43Q305.44 109.62 305.22 108.28999999999999Q305.0 106.96 304.84000000000003 105.96Q304.6 104.62 304.44000000000005 103.98Q304.28000000000003 103.34 304.15 103.15Q304.02 102.96 303.8 102.96Q303.38 102.96 302.89 103.38Q302.40000000000003 103.8 301.91 104.78999999999999Q301.42 105.78 300.94 107.52ZM307.90000000000003 119.3 308.66 118.54Q310.18 116.24 311.23 114.16999999999999Q312.28000000000003 112.1 312.93 110.00999999999999Q313.58 107.92 313.89 105.57Q314.2 103.22 314.22 100.34Q314.90000000000003 100.12 315.41 100.05000000000001Q315.92 99.98 316.42 100.0Q316.98 100.0 317.28 100.23Q317.58 100.46000000000001 317.56 100.96000000000001Q317.5 102.18 317.24 103.51Q316.98 104.84 316.48 106.35Q315.98 107.86 315.21000000000004 109.6Q314.44 111.34 313.35 113.36Q312.26 115.38 310.82 117.74Q308.42 121.68 306.39 124.02000000000001Q304.36 126.36 302.55 127.37Q300.74 128.38 298.94 128.38Q297.44 128.38 296.78 127.69Q296.12 127.0 296.12 125.94Q296.12 125.06 296.63 124.50999999999999Q297.14 123.96 297.84000000000003 123.96Q298.0 123.96 298.25 124.15Q298.5 124.34 299.04 124.9Q299.6 125.42 300.07000000000005 125.66Q300.54 125.9 300.96000000000004 125.9Q301.72 125.9 302.86 125.1Q304.0 124.3 305.32 122.82Q306.64 121.34 307.90000000000003 119.3Z" fill="#FAFAF7"></path><path d="M333.66257812500004 118.1640625Q331.98093750000004 118.1640625 330.7053515625 117.401171875Q329.429765625 116.63828125 328.71609375 115.23554687500001Q328.00242187500004 113.8328125 328.00242187500004 111.905078125Q328.00242187500004 109.936328125 328.7366015625 108.525390625Q329.47078125 107.114453125 330.73406250000005 106.3638671875Q331.99734375 105.61328125 333.596953125 105.61328125Q334.614140625 105.61328125 335.4877734375 105.90859375Q336.36140625 106.20390625 337.042265625 106.7494140625Q337.72312500000004 107.294921875 338.1619921875 108.04140625Q338.600859375 108.787890625 338.74851562500004 109.68203125H336.49265625000004Q336.345 109.198046875 336.08660156250005 108.8125Q335.828203125 108.426953125 335.4631640625 108.15214843749999Q335.09812500000004 107.87734375 334.63875 107.737890625Q334.179375 107.5984375 333.62156250000004 107.5984375Q332.645390625 107.5984375 331.874296875 108.0947265625Q331.103203125 108.591015625 330.6643359375 109.54667968749999Q330.22546875 110.50234375 330.22546875 111.88046875Q330.22546875 113.266796875 330.660234375 114.2265625Q331.095 115.186328125 331.874296875 115.6826171875Q332.65359375 116.17890625 333.678984375 116.17890625Q334.60593750000004 116.17890625 335.28679687500005 115.82207031249999Q335.96765625 115.465234375 336.336796875 114.808984375Q336.7059375 114.152734375 336.7059375 113.25859375L337.21453125 113.340625H333.892265625V111.609765625H338.85515625V113.069921875Q338.85515625 114.644921875 338.190703125 115.78515625Q337.52625 116.925390625 336.3491015625 117.5447265625Q335.171953125 118.1640625 333.66257812500004 118.1640625Z M353.77926562500005 105.77734375H355.98590625V113.758984375Q355.98590625 115.071484375 355.370671875 116.06816406249999Q354.7554375 117.06484375 353.63981250000006 117.62675781249999Q352.52418750000004 118.188671875 351.03121875000005 118.188671875Q349.53825000000006 118.188671875 348.42262500000004 117.62675781249999Q347.307 117.06484375 346.68766406250006 116.06816406249999Q346.06832812500005 115.071484375 346.06832812500005 113.758984375V105.77734375H348.28317187500005V113.578515625Q348.28317187500005 114.349609375 348.6195 114.940234375Q348.95582812500004 115.530859375 349.57516406250005 115.87128906250001Q350.19450000000006 116.21171875 351.03121875000005 116.21171875Q351.86793750000004 116.21171875 352.48317187500004 115.87128906250001Q353.09840625000004 115.530859375 353.4388359375 114.940234375Q353.77926562500005 114.349609375 353.77926562500005 113.578515625Z M365.68462500000004 105.77734375V118.0H363.46978125000004V105.77734375Z M373.16850000000005 118.0V105.77734375H375.38334375000005V116.14609375H380.77279687500004V118.0Z M391.9070625 118.0H388.80628125000004V116.08046875H391.79221875Q393.063703125 116.08046875 393.9209296875 115.61699218749999Q394.77815625 115.153515625 395.2088203125 114.218359375Q395.639484375 113.283203125 395.639484375 111.88046875Q395.639484375 110.477734375 395.212921875 109.55078125Q394.786359375 108.623828125 393.9414375 108.16035156250001Q393.096515625 107.696875 391.849640625 107.696875H388.74065625000003V105.77734375H391.98089062500003Q393.801984375 105.77734375 395.1103828125 106.507421875Q396.41878125 107.2375 397.12425 108.607421875Q397.82971875000004 109.97734375 397.82971875000004 111.88046875Q397.82971875000004 113.78359375 397.12425 115.1576171875Q396.41878125 116.531640625 395.0939765625 117.2658203125Q393.76917187500004 118.0 391.9070625 118.0ZM389.97112500000003 105.77734375V118.0H387.75628125000003V105.77734375Z" fill="#FAFAF7"></path><path d="M902.1359999999999 112.19Q900.8059999999999 112.19 899.8084999999999 111.6865Q898.8109999999999 111.183 898.2694999999999 110.26150000000001Q897.728 109.34 897.728 108.086V102.044Q897.728 100.771 898.2694999999999 99.85900000000001Q898.8109999999999 98.947 899.8084999999999 98.4435Q900.8059999999999 97.94 902.1359999999999 97.94Q903.4849999999999 97.94 904.4634999999998 98.4435Q905.4419999999999 98.947 905.9929999999999 99.85900000000001Q906.5439999999999 100.771 906.5439999999999 102.044H904.1499999999999Q904.1499999999999 101.056 903.6274999999998 100.543Q903.1049999999999 100.03 902.1359999999999 100.03Q901.1669999999999 100.03 900.635 100.543Q900.103 101.056 900.103 102.025V108.086Q900.103 109.055 900.635 109.5775Q901.1669999999999 110.1 902.1359999999999 110.1Q903.1049999999999 110.1 903.6274999999998 109.5775Q904.1499999999999 109.055 904.1499999999999 108.086H906.5439999999999Q906.5439999999999 109.321 905.9929999999999 110.25200000000001Q905.4419999999999 111.183 904.4634999999998 111.6865Q903.4849999999999 112.19 902.1359999999999 112.19Z M913.7829999999999 112.0V106.965L909.7169999999999 98.13H912.2059999999999L914.3719999999998 102.937Q914.6189999999999 103.507 914.79 104.05799999999999Q914.9609999999999 104.609 915.0179999999998 104.913Q915.0939999999998 104.609 915.2554999999998 104.05799999999999Q915.4169999999998 103.507 915.6639999999999 102.937L917.7729999999999 98.13H920.2429999999998L916.1769999999999 106.965V112.0Z M927.9759999999998 112.19Q926.6459999999998 112.19 925.6484999999998 111.6865Q924.6509999999998 111.183 924.1094999999998 110.26150000000001Q923.5679999999999 109.34 923.5679999999999 108.086V102.044Q923.5679999999999 100.771 924.1094999999998 99.85900000000001Q924.6509999999998 98.947 925.6484999999998 98.4435Q926.6459999999998 97.94 927.9759999999998 97.94Q929.3249999999998 97.94 930.3034999999998 98.4435Q931.2819999999998 98.947 931.8329999999999 99.85900000000001Q932.3839999999998 100.771 932.3839999999998 102.044H929.9899999999998Q929.9899999999998 101.056 929.4674999999997 100.543Q928.9449999999998 100.03 927.9759999999998 100.03Q927.0069999999998 100.03 926.4749999999999 100.543Q925.9429999999999 101.056 925.9429999999999 102.025V108.086Q925.9429999999999 109.055 926.4749999999999 109.5775Q927.0069999999998 110.1 927.9759999999998 110.1Q928.9449999999998 110.1 929.4674999999997 109.5775Q929.9899999999998 109.055 929.9899999999998 108.086H932.3839999999998Q932.3839999999998 109.321 931.8329999999999 110.25200000000001Q931.2819999999998 111.183 930.3034999999998 111.6865Q929.3249999999998 112.19 927.9759999999998 112.19Z M937.0769999999998 112.0V98.13H939.4519999999998V109.796H945.3419999999998V112.0Z M949.7119999999998 112.0V98.13H958.0339999999998V100.201H952.0489999999998V103.811H957.3689999999997V105.863H952.0489999999998V109.929H958.0339999999998V112.0Z M979.5799999999997 112.19Q978.2309999999997 112.19 977.2429999999997 111.67699999999999Q976.2549999999997 111.164 975.7134999999996 110.233Q975.1719999999997 109.302 975.1719999999997 108.048V102.082Q975.1719999999997 100.828 975.7134999999996 99.897Q976.2549999999997 98.96600000000001 977.2429999999997 98.453Q978.2309999999997 97.94 979.5799999999997 97.94Q980.9479999999996 97.94 981.9264999999996 98.453Q982.9049999999996 98.96600000000001 983.4464999999996 99.897Q983.9879999999996 100.828 983.9879999999996 102.082V108.048Q983.9879999999996 109.302 983.4464999999996 110.233Q982.9049999999996 111.164 981.9169999999997 111.67699999999999Q980.9289999999996 112.19 979.5799999999997 112.19ZM979.5799999999997 110.138Q980.5679999999996 110.138 981.1569999999997 109.56800000000001Q981.7459999999996 108.998 981.7459999999996 108.048V102.082Q981.7459999999996 101.132 981.1569999999997 100.56200000000001Q980.5679999999996 99.992 979.5799999999997 99.992Q978.5919999999996 99.992 978.0029999999997 100.56200000000001Q977.4139999999996 101.132 977.4139999999996 102.082V108.048Q977.4139999999996 108.998 978.0029999999997 109.56800000000001Q978.5919999999996 110.138 979.5799999999997 110.138ZM979.5799999999997 106.3Q979.0289999999997 106.3 978.6774999999997 105.939Q978.3259999999997 105.578 978.3259999999997 105.008Q978.3259999999997 104.438 978.6679999999997 104.096Q979.0099999999996 103.754 979.5799999999997 103.754Q980.1499999999996 103.754 980.4919999999996 104.096Q980.8339999999996 104.438 980.8339999999996 105.008Q980.8339999999996 105.578 980.4919999999996 105.939Q980.1499999999996 106.3 979.5799999999997 106.3Z M989.7449999999997 112.0 994.7609999999996 100.334H990.3149999999996V102.348H987.9399999999996V98.13H997.1359999999996V100.372L992.2909999999996 112.0Z M1018.3399999999996 107.155Q1017.5229999999996 107.155 1017.0384999999995 106.68Q1016.5539999999995 106.205 1016.5539999999995 105.388Q1016.5539999999995 104.571 1017.0384999999995 104.0865Q1017.5229999999996 103.602 1018.3399999999996 103.602Q1019.1569999999996 103.602 1019.6414999999995 104.0865Q1020.1259999999995 104.571 1020.1259999999995 105.388Q1020.1259999999995 106.205 1019.6414999999995 106.68Q1019.1569999999996 107.155 1018.3399999999996 107.155Z M1044.2559999999996 112.19Q1042.9259999999995 112.19 1041.9284999999995 111.6865Q1040.9309999999996 111.183 1040.3894999999995 110.26150000000001Q1039.8479999999995 109.34 1039.8479999999995 108.086V102.044Q1039.8479999999995 100.771 1040.3894999999995 99.85900000000001Q1040.9309999999996 98.947 1041.9284999999995 98.4435Q1042.9259999999995 97.94 1044.2559999999996 97.94Q1045.6049999999996 97.94 1046.5834999999997 98.4435Q1047.5619999999997 98.947 1048.1129999999996 99.85900000000001Q1048.6639999999995 100.771 1048.6639999999995 102.044H1046.2699999999995Q1046.2699999999995 101.056 1045.7474999999995 100.543Q1045.2249999999995 100.03 1044.2559999999996 100.03Q1043.2869999999996 100.03 1042.7549999999997 100.543Q1042.2229999999995 101.056 1042.2229999999995 102.025V108.086Q1042.2229999999995 109.055 1042.7549999999997 109.5775Q1043.2869999999996 110.1 1044.2559999999996 110.1Q1045.2249999999995 110.1 1045.7474999999995 109.5775Q1046.2699999999995 109.055 1046.2699999999995 108.086H1048.6639999999995Q1048.6639999999995 109.321 1048.1129999999996 110.25200000000001Q1047.5619999999997 111.183 1046.5834999999997 111.6865Q1045.6049999999996 112.19 1044.2559999999996 112.19Z M1053.3569999999997 112.0V98.13H1055.7319999999997V109.796H1061.6219999999996V112.0Z M1070.0199999999998 112.19Q1068.6899999999996 112.19 1067.7114999999997 111.6865Q1066.7329999999997 111.183 1066.2104999999997 110.26150000000001Q1065.6879999999996 109.34 1065.6879999999996 108.086V102.044Q1065.6879999999996 100.79 1066.2104999999997 99.86850000000001Q1066.7329999999997 98.947 1067.7114999999997 98.4435Q1068.6899999999996 97.94 1070.0199999999998 97.94Q1071.3689999999997 97.94 1072.3379999999997 98.4435Q1073.3069999999998 98.947 1073.8294999999998 99.86850000000001Q1074.3519999999996 100.79 1074.3519999999996 102.025V108.086Q1074.3519999999996 109.34 1073.8294999999998 110.26150000000001Q1073.3069999999998 111.183 1072.3379999999997 111.6865Q1071.3689999999997 112.19 1070.0199999999998 112.19ZM1070.0199999999998 110.1Q1070.9889999999998 110.1 1071.4829999999997 109.5775Q1071.9769999999996 109.055 1071.9769999999996 108.086V102.044Q1071.9769999999996 101.056 1071.4829999999997 100.543Q1070.9889999999998 100.03 1070.0199999999998 100.03Q1069.0509999999997 100.03 1068.5569999999998 100.543Q1068.0629999999996 101.056 1068.0629999999996 102.044V108.086Q1068.0629999999996 109.055 1068.5664999999997 109.5775Q1069.0699999999997 110.1 1070.0199999999998 110.1Z M1082.9779999999998 112.19Q1081.5529999999999 112.19 1080.5079999999998 111.715Q1079.4629999999997 111.24 1078.9024999999997 110.3565Q1078.3419999999999 109.473 1078.3229999999999 108.276H1080.6979999999999Q1080.6979999999999 109.131 1081.3154999999997 109.6155Q1081.9329999999998 110.1 1082.9969999999998 110.1Q1084.0229999999997 110.1 1084.6024999999997 109.625Q1085.1819999999998 109.15 1085.1819999999998 108.314Q1085.1819999999998 107.611 1084.7734999999998 107.08850000000001Q1084.3649999999998 106.566 1083.6049999999998 106.376L1082.0089999999998 105.939Q1080.3749999999998 105.521 1079.4914999999996 104.438Q1078.6079999999997 103.355 1078.6079999999997 101.816Q1078.6079999999997 100.638 1079.1399999999999 99.76400000000001Q1079.6719999999998 98.89 1080.6504999999997 98.41499999999999Q1081.6289999999997 97.94 1082.9589999999998 97.94Q1084.9729999999997 97.94 1086.1509999999998 98.9755Q1087.3289999999997 100.011 1087.3479999999997 101.759H1084.9729999999997Q1084.9729999999997 100.94200000000001 1084.4409999999998 100.4765Q1083.9089999999999 100.011 1082.9399999999998 100.011Q1082.0089999999998 100.011 1081.4959999999996 100.44800000000001Q1080.9829999999997 100.885 1080.9829999999997 101.68299999999999Q1080.9829999999997 102.405 1081.3724999999997 102.9085Q1081.7619999999997 103.412 1082.5029999999997 103.621L1084.1559999999997 104.077Q1085.8089999999997 104.495 1086.6829999999998 105.5685Q1087.5569999999998 106.642 1087.5569999999998 108.219Q1087.5569999999998 109.397 1086.9869999999996 110.2995Q1086.4169999999997 111.202 1085.3909999999996 111.696Q1084.3649999999998 112.19 1082.9779999999998 112.19Z M1091.8319999999999 112.0V98.13H1100.1539999999998V100.201H1094.1689999999999V103.811H1099.4889999999998V105.863H1094.1689999999999V109.929H1100.1539999999998V112.0Z M1104.5049999999999 112.0V98.13H1108.628Q1110.0339999999999 98.13 1111.0695 98.662Q1112.105 99.194 1112.675 100.16300000000001Q1113.245 101.132 1113.245 102.462V107.649Q1113.245 108.96 1112.675 109.9385Q1112.105 110.917 1111.0695 111.4585Q1110.0339999999999 112.0 1108.628 112.0ZM1106.8799999999999 109.815H1108.628Q1109.654 109.815 1110.262 109.2355Q1110.87 108.656 1110.87 107.649V102.462Q1110.87 101.474 1110.262 100.8945Q1109.654 100.315 1108.628 100.315H1106.8799999999999Z" fill="#FAFAF7"></path><path d="M105.86699999999999 273.565 107.051 269.976H117.892Q122.406 269.976 125.144 271.2895Q127.882 272.603 129.14 274.823Q130.398 277.043 130.398 279.67Q130.398 283.259 128.733 286.256Q127.068 289.253 123.84899999999999 291.1955Q120.63 293.138 115.968 293.508L115.63499999999999 292.916Q120.889 293.286 123.66399999999999 296.0795Q126.439 298.873 126.439 302.98Q126.439 307.309 124.1265 311.2125Q121.814 315.116 117.189 317.558Q112.564 320.0 105.571 320.0H91.77L92.917 316.374H104.276Q109.345 316.374 112.86 314.672Q116.375 312.97 118.225 309.862Q120.07499999999999 306.754 120.07499999999999 302.573Q120.07499999999999 299.206 117.91049999999998 297.2265Q115.746 295.247 110.899 295.247H99.207L100.465 291.621H112.231Q116.042 291.621 118.81700000000001 290.1225Q121.592 288.624 123.10900000000001 286.0155Q124.626 283.407 124.626 280.077Q124.626 277.968 123.701 276.525Q122.776 275.082 120.9075 274.32349999999997Q119.039 273.565 116.264 273.565ZM102.463 273.676 97.209 271.789 97.801 269.976H109.56700000000001L94.286 320.0H82.557L83.149 318.187L89.439 316.3Z M142.386 291.621Q142.238 291.621 142.127 291.621Q142.016 291.621 141.868 291.621Q140.351 291.621 138.982 292.139Q137.613 292.657 136.281 293.9335Q134.949 295.21 133.58 297.541L132.433 297.06Q133.876 293.027 135.70749999999998 290.7885Q137.539 288.55 139.685 287.625Q141.831 286.7 144.125 286.7Q144.828 286.7 145.494 286.774Q146.16 286.848 146.84449999999998 286.97749999999996Q147.529 287.10699999999997 148.158 287.329L143.94 300.76H144.014Q146.60399999999998 295.802 148.935 292.694Q151.266 289.586 153.54149999999998 288.1245Q155.817 286.663 158.148 286.663Q160.405 286.663 161.441 287.736Q162.477 288.809 162.477 290.437Q162.477 291.769 161.811 292.7865Q161.145 293.804 160.1275 294.359Q159.11 294.914 158.037 294.914Q157.778 294.914 157.3895 294.581Q157.001 294.248 156.446 293.545Q155.928 292.805 155.41 292.3795Q154.892 291.954 154.374 291.954Q153.375 291.954 152.11700000000002 292.879Q150.859 293.804 149.5085 295.469Q148.158 297.134 146.826 299.4095Q145.494 301.685 144.29149999999998 304.38599999999997Q143.089 307.087 142.164 310.084L139.13 320.0H133.802Z M179.312 318.039 183.456 305.607H184.122Q181.125 310.047 178.757 312.97Q176.389 315.893 174.44650000000001 317.5765Q172.504 319.26 170.87599999999998 319.96299999999997Q169.248 320.666 167.694 320.666Q165.548 320.666 163.9385 319.8705Q162.329 319.075 161.441 317.3915Q160.553 315.708 160.553 313.044Q160.553 310.121 161.663 306.6615Q162.773 303.202 164.7525 299.7795Q166.732 296.357 169.4145 293.4895Q172.097 290.622 175.279 288.9015Q178.461 287.181 181.939 287.181Q184.381 287.181 185.91649999999998 288.14300000000003Q187.452 289.105 188.562 290.992L187.304 293.027Q186.786 291.769 185.602 290.95500000000004Q184.418 290.141 182.679 290.141Q179.904 290.141 177.4435 291.80600000000004Q174.983 293.471 172.92950000000002 296.1535Q170.876 298.836 169.39600000000002 301.8885Q167.916 304.941 167.102 307.77149999999995Q166.288 310.602 166.288 312.563Q166.288 314.339 167.287 315.20849999999996Q168.286 316.078 169.84 316.078Q171.209 316.078 173.281 314.83849999999995Q175.353 313.599 177.55450000000002 311.453Q179.756 309.307 181.6615 306.42100000000005Q183.567 303.535 184.677 300.279L188.451 288.55L192.928 287.403H194.186L184.344 317.336L183.567 315.782Q184.862 315.967 186.5455 315.5045Q188.22899999999998 315.042 190.0975 314.006Q191.966 312.97 193.779 311.416L194.926 312.859Q190.597 317.336 187.526 319.038Q184.455 320.74 182.05 320.74Q180.311 320.74 179.5895 320.0185Q178.868 319.297 179.312 318.039Z M199.44000000000003 297.541 198.293 297.06Q199.73600000000002 293.027 201.5675 290.7885Q203.399 288.55 205.54500000000002 287.625Q207.691 286.7 209.985 286.7Q210.68800000000002 286.7 211.354 286.774Q212.02 286.848 212.686 286.97749999999996Q213.352 287.10699999999997 214.018 287.329L209.13400000000001 302.906H209.17100000000002Q211.05800000000002 299.465 213.09300000000002 296.5235Q215.12800000000001 293.582 217.3295 291.399Q219.531 289.216 221.8435 287.995Q224.156 286.774 226.598 286.774Q229.817 286.774 231.0935 288.18Q232.37 289.586 232.37 291.806Q232.37 293.027 231.9815 294.581Q231.59300000000002 296.135 230.816 298.096L223.305 317.299L223.23100000000002 315.745Q224.526 315.782 226.0985 315.2825Q227.67100000000002 314.783 229.41000000000003 313.784Q231.149 312.785 232.851 311.416L234.072 312.859Q231.223 315.856 228.8365 317.595Q226.45000000000002 319.334 224.48900000000003 320.03700000000003Q222.52800000000002 320.74 220.78900000000002 320.74Q218.38400000000001 320.74 217.81050000000002 319.9815Q217.23700000000002 319.223 218.125 317.04L226.08 296.838Q226.48700000000002 295.839 226.709 295.025Q226.931 294.211 226.931 293.582Q226.931 292.583 226.26500000000001 292.0095Q225.59900000000002 291.436 224.008 291.436Q222.04700000000003 291.436 219.716 292.99Q217.38500000000002 294.544 215.091 297.3005Q212.79700000000003 300.057 210.85450000000003 303.6645Q208.912 307.272 207.691 311.305L204.99 320.0H199.662L208.246 291.621Q208.098 291.621 207.98700000000002 291.621Q207.876 291.621 207.728 291.621Q206.211 291.621 204.842 292.139Q203.473 292.657 202.14100000000002 293.9335Q200.80900000000003 295.21 199.44000000000003 297.541Z M264.005 292.731Q263.487 291.473 262.303 290.6405Q261.119 289.808 259.38 289.808Q256.56800000000004 289.808 254.05200000000002 291.4915Q251.53600000000003 293.175 249.46400000000003 295.876Q247.39200000000002 298.577 245.87500000000003 301.6665Q244.35800000000003 304.756 243.52550000000002 307.6235Q242.693 310.491 242.693 312.489Q242.693 314.302 243.692 315.19Q244.69100000000003 316.078 246.24500000000003 316.078Q247.42900000000003 316.078 249.09400000000002 315.227Q250.75900000000001 314.376 252.572 312.859Q254.38500000000002 311.342 256.14250000000004 309.307Q257.90000000000003 307.272 259.32450000000006 304.8485Q260.749 302.425 261.526 299.835L269.77700000000004 273.084Q269.11100000000005 272.529 268.37100000000004 272.0295Q267.63100000000003 271.53 266.76150000000007 271.0675Q265.89200000000005 270.605 264.819 270.235L265.15200000000004 269.014L275.845 267.09000000000003H276.807L261.08200000000005 317.336L260.26800000000003 315.782Q261.56300000000005 315.967 263.2465 315.5045Q264.93 315.042 266.7985 314.006Q268.66700000000003 312.97 270.48 311.416L271.627 312.859Q267.33500000000004 317.336 264.264 319.038Q261.19300000000004 320.74 258.75100000000003 320.74Q257.012 320.74 256.2905 320.0185Q255.56900000000002 319.297 256.01300000000003 318.039L260.15700000000004 305.607H260.82300000000004Q257.78900000000004 310.084 255.38400000000001 313.007Q252.979 315.93 250.9995 317.595Q249.02000000000004 319.26 247.33650000000003 319.96299999999997Q245.65300000000002 320.666 244.09900000000002 320.666Q241.95300000000003 320.666 240.34350000000003 319.8705Q238.73400000000004 319.075 237.84600000000003 317.35450000000003Q236.95800000000003 315.634 236.95800000000003 312.97Q236.95800000000003 310.01 238.08650000000003 306.5135Q239.21500000000003 303.017 241.21300000000002 299.539Q243.211 296.061 245.949 293.1935Q248.687 290.326 251.906 288.5685Q255.12500000000003 286.811 258.64000000000004 286.811Q261.08200000000005 286.811 262.61750000000006 287.7915Q264.153 288.772 265.26300000000003 290.659Z M293.346 286.663Q296.60200000000003 286.663 298.896 288.0135Q301.19 289.364 302.411 291.84299999999996Q303.632 294.322 303.632 297.837Q303.632 302.314 302.2445 306.4395Q300.857 310.565 298.39650000000006 313.784Q295.93600000000004 317.003 292.6245 318.87149999999997Q289.31300000000005 320.74 285.428 320.74Q282.24600000000004 320.74 279.93350000000004 319.3895Q277.62100000000004 318.039 276.3815 315.5415Q275.142 313.044 275.142 309.566Q275.142 305.089 276.5295 300.98199999999997Q277.91700000000003 296.875 280.396 293.656Q282.875 290.437 286.1865 288.55Q289.49800000000005 286.663 293.346 286.663ZM285.53900000000004 317.891Q287.61100000000005 317.891 289.47950000000003 316.63300000000004Q291.348 315.375 292.92050000000006 313.22900000000004Q294.49300000000005 311.083 295.6585 308.3265Q296.824 305.57 297.4715 302.5175Q298.119 299.465 298.119 296.505Q298.119 292.953 296.93500000000006 291.23249999999996Q295.75100000000003 289.512 293.27200000000005 289.512Q291.20000000000005 289.512 289.31300000000005 290.77Q287.42600000000004 292.028 285.85350000000005 294.174Q284.281 296.32 283.1155 299.0765Q281.95000000000005 301.833 281.3025 304.8855Q280.65500000000003 307.938 280.65500000000003 310.935Q280.65500000000003 314.413 281.8575 316.15200000000004Q283.06 317.891 285.53900000000004 317.891Z M309.441 297.541 308.294 297.06Q309.73699999999997 293.027 311.5685 290.7885Q313.4 288.55 315.546 287.625Q317.692 286.7 319.986 286.7Q320.68899999999996 286.7 321.355 286.774Q322.021 286.848 322.687 286.97749999999996Q323.353 287.10699999999997 324.019 287.329L319.135 302.906H319.17199999999997Q321.05899999999997 299.465 323.094 296.5235Q325.129 293.582 327.33050000000003 291.399Q329.532 289.216 331.8445 287.995Q334.157 286.774 336.599 286.774Q339.818 286.774 341.0945 288.18Q342.371 289.586 342.371 291.806Q342.371 293.027 341.98249999999996 294.581Q341.594 296.135 340.817 298.096L333.306 317.299L333.23199999999997 315.745Q334.527 315.782 336.0995 315.2825Q337.67199999999997 314.783 339.41099999999994 313.784Q341.15 312.785 342.852 311.416L344.073 312.859Q341.224 315.856 338.8375 317.595Q336.45099999999996 319.334 334.49 320.03700000000003Q332.529 320.74 330.78999999999996 320.74Q328.385 320.74 327.8115 319.9815Q327.238 319.223 328.126 317.04L336.081 296.838Q336.488 295.839 336.71000000000004 295.025Q336.932 294.211 336.932 293.582Q336.932 292.583 336.26599999999996 292.0095Q335.59999999999997 291.436 334.009 291.436Q332.048 291.436 329.717 292.99Q327.38599999999997 294.544 325.092 297.3005Q322.798 300.057 320.8555 303.6645Q318.913 307.272 317.692 311.305L314.991 320.0H309.663L318.247 291.621Q318.099 291.621 317.988 291.621Q317.877 291.621 317.729 291.621Q316.212 291.621 314.84299999999996 292.139Q313.474 292.657 312.142 293.9335Q310.81 295.21 309.441 297.541Z M384.958 267.09000000000003 369.011 320.0H363.79400000000004L377.96500000000003 273.047Q377.29900000000004 272.492 376.559 271.9925Q375.819 271.493 374.94950000000006 271.03049999999996Q374.08000000000004 270.568 373.007 270.198L373.34000000000003 269.014L383.99600000000004 267.09000000000003ZM374.26500000000004 301.796 374.45000000000005 301.16700000000003Q379.00100000000003 296.764 382.183 293.915Q385.365 291.06600000000003 387.6405 289.49350000000004Q389.916 287.921 391.7105 287.29200000000003Q393.505 286.663 395.244 286.663Q397.20500000000004 286.663 398.29650000000004 287.847Q399.38800000000003 289.031 399.38800000000003 290.622Q399.38800000000003 292.102 398.68500000000006 293.1565Q397.982 294.211 396.89050000000003 294.7845Q395.79900000000004 295.358 394.615 295.358Q394.17100000000005 295.358 393.7825 294.914Q393.394 294.47 392.87600000000003 293.582Q392.358 292.657 391.9325 292.2685Q391.507 291.88 390.98900000000003 291.88Q390.175 291.88 388.732 292.5645Q387.28900000000004 293.249 385.476 294.5255Q383.663 295.802 381.591 297.5595Q379.519 299.317 377.447 301.463L378.52000000000004 299.243Q380.814 305.015 382.3125 308.456Q383.81100000000004 311.897 384.7545 313.58050000000003Q385.69800000000004 315.264 386.40100000000007 315.819Q387.10400000000004 316.374 387.807 316.374Q388.62100000000004 316.374 389.76800000000003 315.6895Q390.915 315.005 392.26550000000003 313.7655Q393.61600000000004 312.526 395.02200000000005 310.861L396.35400000000004 312.082Q393.91200000000003 315.301 392.0065 317.188Q390.101 319.075 388.5285 319.9075Q386.956 320.74 385.51300000000003 320.74Q384.29200000000003 320.74 383.25600000000003 320.074Q382.22 319.408 381.03600000000006 317.447Q379.85200000000003 315.486 378.24250000000006 311.749Q376.63300000000004 308.012 374.26500000000004 301.796Z M417.88800000000003 289.475Q415.668 289.475 413.855 290.71450000000004Q412.04200000000003 291.954 410.6175 294.026Q409.193 296.098 408.231 298.66949999999997Q407.269 301.241 406.7695 303.9235Q406.27 306.606 406.27 309.011Q406.27 313.044 407.8425 314.6905Q409.415 316.337 412.116 316.337Q413.892 316.337 415.483 315.70799999999997Q417.074 315.079 418.5355 313.58050000000003Q419.997 312.082 421.366 309.381H423.73400000000004Q421.81 313.747 419.83050000000003 316.226Q417.851 318.705 415.57550000000003 319.72249999999997Q413.3 320.74 410.414 320.74Q407.38 320.74 405.197 319.593Q403.014 318.446 401.83000000000004 316.189Q400.646 313.932 400.646 310.565Q400.646 306.569 401.608 302.9615Q402.57 299.354 404.30899999999997 296.394Q406.048 293.434 408.342 291.251Q410.636 289.068 413.3555 287.8655Q416.075 286.663 418.961 286.663Q421.773 286.663 423.51200000000006 287.625Q425.25100000000003 288.587 426.06500000000005 290.1595Q426.879 291.732 426.879 293.582Q426.879 295.21 426.213 296.8565Q425.547 298.503 424.474 299.502Q422.14300000000003 300.39 419.7935 301.241Q417.444 302.092 415.09450000000004 302.8505Q412.745 303.609 410.414 304.312Q408.083 305.015 405.752 305.681L405.90000000000003 302.832Q409.896 301.833 412.6895 300.871Q415.483 299.909 417.259 299.0025Q419.035 298.096 420.0155 297.15250000000003Q420.996 296.209 421.366 295.247Q421.736 294.285 421.736 293.249Q421.736 292.102 421.29200000000003 291.2695Q420.848 290.437 419.997 289.956Q419.146 289.475 417.88800000000003 289.475Z M439.681 309.418Q439.274 310.935 439.163 311.823Q439.052 312.711 439.052 313.229Q439.052 315.227 440.2545 316.633Q441.457 318.039 444.23199999999997 318.039Q446.11899999999997 318.039 448.0245 316.87350000000004Q449.93 315.708 451.669 313.6545Q453.408 311.601 454.77700000000004 308.95550000000003Q456.146 306.31 456.923 303.3315Q457.7 300.353 457.7 297.356Q457.7 294.359 456.64549999999997 292.953Q455.591 291.547 453.29699999999997 291.547Q451.817 291.547 450.2445 292.398Q448.67199999999997 293.249 447.155 294.7105Q445.638 296.172 444.32449999999994 298.059Q443.01099999999997 299.946 442.049 301.981Q441.087 304.016 440.569 306.014ZM435.13 316.818H437.757L432.651 335.022L439.089 336.798L438.497 338.463H421.292L421.884 336.798L427.43399999999997 335.022L439.57 291.621Q439.533 291.621 439.459 291.621Q439.385 291.621 439.311 291.621Q437.831 291.621 436.425 292.139Q435.019 292.657 433.687 293.9335Q432.355 295.21 431.06 297.541L429.876 297.06Q431.319 293.027 433.132 290.77Q434.945 288.513 437.017 287.56949999999995Q439.089 286.626 441.30899999999997 286.626Q442.308 286.626 443.2885 286.811Q444.269 286.996 445.231 287.255L441.605 300.427L441.531 299.502Q443.936 294.988 446.3595 292.1575Q448.783 289.327 451.1325 287.995Q453.48199999999997 286.663 455.591 286.663Q459.735 286.663 461.622 289.327Q463.509 291.991 463.509 295.617Q463.509 299.391 462.5285 303.0355Q461.548 306.68 459.772 309.8805Q457.996 313.081 455.53549999999996 315.523Q453.075 317.965 450.0965 319.35249999999996Q447.118 320.74 443.788 320.74Q441.198 320.74 438.7005 319.778Q436.203 318.816 435.13 316.818Z M470.243 290.622 470.835 287.403H490.29699999999997L489.816 290.622ZM475.904 311.601Q475.719 312.267 475.5895 312.8035Q475.46 313.34 475.38599999999997 313.7655Q475.312 314.191 475.312 314.487Q475.312 315.153 475.5525 315.449Q475.793 315.745 476.23699999999997 315.745Q477.014 315.745 478.3645 314.894Q479.715 314.043 481.4355 312.4705Q483.156 310.898 485.006 308.641L486.56 309.899Q484.784 312.378 483.0635 314.35749999999996Q481.343 316.337 479.71500000000003 317.76149999999996Q478.087 319.186 476.58849999999995 319.926Q475.09 320.666 473.721 320.666Q472.056 320.666 471.0755 319.704Q470.09499999999997 318.742 470.09499999999997 316.448Q470.09499999999997 315.449 470.317 314.08000000000004Q470.539 312.711 471.057 310.898L479.64099999999996 280.743H484.858Z M510.425 290.622 510.906 287.403H532.736L532.255 290.622ZM518.972 312.711Q517.529 320.037 515.5495000000001 325.106Q513.57 330.175 511.1095 333.283Q508.649 336.391 505.76300000000003 337.797Q502.877 339.203 499.62100000000004 339.203Q496.32800000000003 339.203 494.6815 337.9265Q493.035 336.65 493.035 334.652Q493.035 333.283 493.96000000000004 332.2285Q494.88500000000005 331.174 496.51300000000003 331.174Q497.14200000000005 331.544 497.75250000000005 332.284Q498.36300000000006 333.024 499.103 333.949Q499.88000000000005 334.837 500.78650000000005 335.244Q501.69300000000004 335.651 502.65500000000003 335.651Q504.209 335.651 505.5965 334.89250000000004Q506.98400000000004 334.134 508.22350000000006 332.1545Q509.463 330.175 510.61 326.6415Q511.757 323.108 512.83 317.558L518.9350000000001 286.33Q520.119 280.225 522.7460000000001 275.933Q525.373 271.641 529.2765 269.3655Q533.1800000000001 267.09000000000003 538.138 267.09000000000003Q540.95 267.09000000000003 542.8555 267.7375Q544.761 268.385 545.7415 269.495Q546.722 270.605 546.722 272.048Q546.722 273.491 545.7045 274.453Q544.687 275.415 542.8000000000001 275.415Q541.9490000000001 275.008 541.2460000000001 273.898Q540.543 272.788 539.729 271.937Q538.952 271.012 537.953 270.5865Q536.9540000000001 270.161 535.5110000000001 270.161Q532.773 270.161 530.701 271.4375Q528.629 272.714 527.2415000000001 275.3595Q525.854 278.005 525.0400000000001 282.038Z M549.6080000000001 286.663Q552.864 286.663 555.158 288.0135Q557.452 289.364 558.673 291.84299999999996Q559.894 294.322 559.894 297.837Q559.894 302.314 558.5065 306.4395Q557.119 310.565 554.6585 313.784Q552.198 317.003 548.8865000000001 318.87149999999997Q545.575 320.74 541.69 320.74Q538.508 320.74 536.1955 319.3895Q533.883 318.039 532.6435 315.5415Q531.404 313.044 531.404 309.566Q531.404 305.089 532.7915 300.98199999999997Q534.179 296.875 536.658 293.656Q539.1370000000001 290.437 542.4485 288.55Q545.76 286.663 549.6080000000001 286.663ZM541.801 317.891Q543.873 317.891 545.7415000000001 316.63300000000004Q547.61 315.375 549.1825 313.22900000000004Q550.755 311.083 551.9205 308.3265Q553.086 305.57 553.7335 302.5175Q554.381 299.465 554.381 296.505Q554.381 292.953 553.197 291.23249999999996Q552.013 289.512 549.534 289.512Q547.462 289.512 545.575 290.77Q543.688 292.028 542.1155 294.174Q540.543 296.32 539.3775 299.0765Q538.212 301.833 537.5645 304.8855Q536.917 307.938 536.917 310.935Q536.917 314.413 538.1195 316.15200000000004Q539.322 317.891 541.801 317.891Z M584.129 318.372 588.3100000000001 305.126Q585.498 310.084 583.2040000000001 313.192Q580.9100000000001 316.3 578.9675000000001 317.928Q577.0250000000001 319.556 575.3045000000001 320.148Q573.5840000000001 320.74 571.845 320.74Q569.033 320.74 567.738 319.48199999999997Q566.4430000000001 318.224 566.4430000000001 316.115Q566.4430000000001 314.894 566.8500000000001 313.2105Q567.2570000000001 311.527 568.182 309.159L575.397 290.141L576.359 291.769Q575.027 291.695 573.3065 292.28700000000003Q571.586 292.879 569.7360000000001 294.0815Q567.8860000000001 295.284 566.0360000000001 297.023L564.7040000000001 295.617Q567.6270000000001 292.102 570.0135 290.178Q572.4000000000001 288.254 574.4350000000001 287.4585Q576.47 286.663 578.2460000000001 286.663Q579.9480000000001 286.663 580.6695000000001 287.34749999999997Q581.3910000000001 288.032 580.873 289.401L572.6220000000001 311.26800000000003Q572.326 312.119 572.1410000000001 312.8405Q571.956 313.562 571.956 314.117Q571.956 315.042 572.5665 315.5415Q573.177 316.041 574.4350000000001 316.041Q575.952 316.041 577.9685 314.7645Q579.985 313.488 582.1125 311.046Q584.24 308.604 586.164 305.1445Q588.0880000000001 301.685 589.494 297.356L592.75 287.403H598.115L588.976 317.077L588.754 315.782Q590.0490000000001 315.93 591.7325000000001 315.4675Q593.416 315.005 595.2660000000001 313.9875Q597.116 312.97 598.966 311.416L600.076 312.859Q595.8580000000001 317.447 592.75 319.0935Q589.642 320.74 587.2370000000001 320.74Q585.1650000000001 320.74 584.462 320.16650000000004Q583.759 319.593 584.129 318.372Z M612.73 291.621Q612.5820000000001 291.621 612.471 291.621Q612.36 291.621 612.2120000000001 291.621Q610.695 291.621 609.326 292.139Q607.9570000000001 292.657 606.625 293.9335Q605.293 295.21 603.9240000000001 297.541L602.777 297.06Q604.22 293.027 606.0515 290.7885Q607.883 288.55 610.029 287.625Q612.1750000000001 286.7 614.469 286.7Q615.172 286.7 615.838 286.774Q616.504 286.848 617.1885 286.97749999999996Q617.873 287.10699999999997 618.5020000000001 287.329L614.2840000000001 300.76H614.3580000000001Q616.9480000000001 295.802 619.279 292.694Q621.61 289.586 623.8855000000001 288.1245Q626.1610000000001 286.663 628.4920000000001 286.663Q630.749 286.663 631.7850000000001 287.736Q632.821 288.809 632.821 290.437Q632.821 291.769 632.155 292.7865Q631.489 293.804 630.4715000000001 294.359Q629.4540000000001 294.914 628.3810000000001 294.914Q628.1220000000001 294.914 627.7335 294.581Q627.345 294.248 626.7900000000001 293.545Q626.272 292.805 625.7540000000001 292.3795Q625.2360000000001 291.954 624.7180000000001 291.954Q623.719 291.954 622.461 292.879Q621.2030000000001 293.804 619.8525000000001 295.469Q618.5020000000001 297.134 617.1700000000001 299.4095Q615.8380000000001 301.685 614.6355000000001 304.38599999999997Q613.433 307.087 612.508 310.084L609.474 320.0H604.1460000000001Z M667.749 286.663Q671.005 286.663 673.299 288.0135Q675.593 289.364 676.814 291.84299999999996Q678.035 294.322 678.035 297.837Q678.035 302.314 676.6475 306.4395Q675.26 310.565 672.7995 313.784Q670.3389999999999 317.003 667.0274999999999 318.87149999999997Q663.716 320.74 659.831 320.74Q656.649 320.74 654.3365 319.3895Q652.024 318.039 650.7845 315.5415Q649.545 313.044 649.545 309.566Q649.545 305.089 650.9324999999999 300.98199999999997Q652.3199999999999 296.875 654.799 293.656Q657.278 290.437 660.5895 288.55Q663.901 286.663 667.749 286.663ZM659.942 317.891Q662.014 317.891 663.8824999999999 316.63300000000004Q665.751 315.375 667.3235 313.22900000000004Q668.896 311.083 670.0615 308.3265Q671.227 305.57 671.8744999999999 302.5175Q672.5219999999999 299.465 672.5219999999999 296.505Q672.5219999999999 292.953 671.338 291.23249999999996Q670.154 289.512 667.675 289.512Q665.603 289.512 663.7159999999999 290.77Q661.829 292.028 660.2565 294.174Q658.684 296.32 657.5184999999999 299.0765Q656.353 301.833 655.7055 304.8855Q655.058 307.938 655.058 310.935Q655.058 314.413 656.2605 316.15200000000004Q657.463 317.891 659.942 317.891Z M684.695 290.622 685.176 287.403H707.006L706.525 290.622ZM693.242 312.711Q691.799 320.037 689.8195000000001 325.106Q687.84 330.175 685.3795 333.283Q682.919 336.391 680.033 337.797Q677.147 339.203 673.891 339.203Q670.598 339.203 668.9515 337.9265Q667.3050000000001 336.65 667.3050000000001 334.652Q667.3050000000001 333.283 668.23 332.2285Q669.155 331.174 670.783 331.174Q671.412 331.544 672.0225 332.284Q672.633 333.024 673.373 333.949Q674.15 334.837 675.0564999999999 335.244Q675.963 335.651 676.925 335.651Q678.479 335.651 679.8665000000001 334.89250000000004Q681.254 334.134 682.4935 332.1545Q683.7330000000001 330.175 684.8800000000001 326.6415Q686.027 323.108 687.1 317.558L693.205 286.33Q694.389 280.225 697.0160000000001 275.933Q699.643 271.641 703.5465 269.3655Q707.45 267.09000000000003 712.408 267.09000000000003Q715.22 267.09000000000003 717.1255 267.7375Q719.031 268.385 720.0115 269.495Q720.992 270.605 720.992 272.048Q720.992 273.491 719.9745 274.453Q718.957 275.415 717.07 275.415Q716.219 275.008 715.5160000000001 273.898Q714.813 272.788 713.999 271.937Q713.222 271.012 712.223 270.5865Q711.224 270.161 709.7810000000001 270.161Q707.043 270.161 704.971 271.4375Q702.899 272.714 701.5115000000001 275.3595Q700.124 278.005 699.3100000000001 282.038Z M724.692 290.622 725.173 287.403H747.0029999999999L746.5219999999999 290.622ZM733.2389999999999 312.711Q731.7959999999999 320.037 729.8164999999999 325.106Q727.837 330.175 725.3765 333.283Q722.9159999999999 336.391 720.03 337.797Q717.144 339.203 713.8879999999999 339.203Q710.5949999999999 339.203 708.9485 337.9265Q707.302 336.65 707.302 334.652Q707.302 333.283 708.227 332.2285Q709.1519999999999 331.174 710.78 331.174Q711.409 331.544 712.0195 332.284Q712.63 333.024 713.37 333.949Q714.1469999999999 334.837 715.0535 335.244Q715.9599999999999 335.651 716.9219999999999 335.651Q718.476 335.651 719.8634999999999 334.89250000000004Q721.251 334.134 722.4905 332.1545Q723.73 330.175 724.877 326.6415Q726.024 323.108 727.097 317.558L733.202 286.33Q734.386 280.225 737.0129999999999 275.933Q739.64 271.641 743.5435 269.3655Q747.447 267.09000000000003 752.405 267.09000000000003Q755.217 267.09000000000003 757.1225 267.7375Q759.028 268.385 760.0084999999999 269.495Q760.9889999999999 270.605 760.9889999999999 272.048Q760.9889999999999 273.491 759.9714999999999 274.453Q758.954 275.415 757.067 275.415Q756.216 275.008 755.5129999999999 273.898Q754.81 272.788 753.996 271.937Q753.2189999999999 271.012 752.22 270.5865Q751.221 270.161 749.778 270.161Q747.04 270.161 744.968 271.4375Q742.896 272.714 741.5084999999999 275.3595Q740.121 278.005 739.307 282.038Z M746.189 318.039 756.105 290.733 757.252 291.806Q755.9939999999999 291.769 754.3474999999999 292.3425Q752.7009999999999 292.916 750.9064999999999 294.0815Q749.112 295.247 747.336 296.949L746.115 295.58Q749.001 291.991 751.332 290.067Q753.663 288.14300000000003 755.6055 287.403Q757.548 286.663 759.1759999999999 286.663Q760.804 286.663 761.507 287.329Q762.2099999999999 287.995 761.7289999999999 289.364L751.776 317.299L751.036 315.745Q752.331 315.856 753.996 315.41200000000003Q755.661 314.968 757.4925 313.95050000000003Q759.324 312.933 761.0999999999999 311.416L762.247 312.896Q759.435 315.93 757.1039999999999 317.632Q754.7729999999999 319.334 752.8489999999999 320.03700000000003Q750.925 320.74 749.223 320.74Q747.077 320.74 746.3555 320.111Q745.634 319.482 746.189 318.039ZM758.584 271.752Q758.584 270.494 759.1575 269.4765Q759.731 268.459 760.767 267.86699999999996Q761.803 267.275 763.209 267.275Q765.207 267.275 766.4095 268.459Q767.612 269.64300000000003 767.612 271.456Q767.612 272.714 767.02 273.7315Q766.428 274.749 765.4105 275.341Q764.3929999999999 275.933 762.987 275.933Q760.952 275.933 759.768 274.749Q758.584 273.565 758.584 271.752Z M797.693 292.324Q797.693 295.765 796.546 299.6685Q795.399 303.572 793.3455 307.30899999999997Q791.292 311.046 788.591 314.08Q785.89 317.114 782.745 318.927Q779.6 320.74 776.196 320.74Q772.9399999999999 320.74 771.0899999999999 319.149Q769.24 317.558 769.24 314.82Q769.24 313.229 769.869 311.453L776.7139999999999 291.621Q776.566 291.621 776.4365 291.621Q776.307 291.621 776.196 291.621Q774.679 291.621 773.2915 292.139Q771.904 292.657 770.572 293.9335Q769.24 295.21 767.908 297.541L766.724 297.06Q767.871 294.063 769.24 292.0465Q770.609 290.03 772.163 288.8645Q773.717 287.699 775.4375 287.1995Q777.158 286.7 779.008 286.7Q779.711 286.7 780.4325 286.774Q781.154 286.848 781.8755 286.97749999999996Q782.597 287.10699999999997 783.3 287.329L775.197 311.009Q774.938 311.786 774.79 312.4335Q774.6419999999999 313.081 774.6419999999999 313.599Q774.6419999999999 315.153 775.567 315.8745Q776.492 316.596 778.194 316.596Q780.34 316.596 782.486 315.2825Q784.632 313.969 786.556 311.86Q788.48 309.751 789.96 307.2535Q791.4399999999999 304.756 792.2909999999999 302.31399999999996Q793.1419999999999 299.872 793.1419999999999 297.948Q793.1419999999999 296.54200000000003 792.4945 295.432Q791.847 294.322 791.0145 293.4525Q790.182 292.583 789.5345 291.91700000000003Q788.887 291.251 788.887 290.77Q788.887 288.735 790.256 287.699Q791.625 286.663 793.253 286.663Q795.362 286.663 796.5274999999999 288.1245Q797.693 289.586 797.693 292.324Z M818.635 289.475Q816.415 289.475 814.602 290.71450000000004Q812.789 291.954 811.3644999999999 294.026Q809.9399999999999 296.098 808.978 298.66949999999997Q808.016 301.241 807.5165 303.9235Q807.0169999999999 306.606 807.0169999999999 309.011Q807.0169999999999 313.044 808.5894999999999 314.6905Q810.1619999999999 316.337 812.8629999999999 316.337Q814.639 316.337 816.23 315.70799999999997Q817.8209999999999 315.079 819.2824999999999 313.58050000000003Q820.7439999999999 312.082 822.1129999999999 309.381H824.481Q822.557 313.747 820.5775 316.226Q818.598 318.705 816.3225 319.72249999999997Q814.0469999999999 320.74 811.161 320.74Q808.127 320.74 805.944 319.593Q803.761 318.446 802.577 316.189Q801.3929999999999 313.932 801.3929999999999 310.565Q801.3929999999999 306.569 802.355 302.9615Q803.317 299.354 805.056 296.394Q806.795 293.434 809.0889999999999 291.251Q811.3829999999999 289.068 814.1025 287.8655Q816.822 286.663 819.708 286.663Q822.52 286.663 824.259 287.625Q825.9979999999999 288.587 826.8119999999999 290.1595Q827.626 291.732 827.626 293.582Q827.626 295.21 826.96 296.8565Q826.294 298.503 825.221 299.502Q822.89 300.39 820.5405 301.241Q818.1909999999999 302.092 815.8415 302.8505Q813.492 303.609 811.161 304.312Q808.8299999999999 305.015 806.499 305.681L806.6469999999999 302.832Q810.6429999999999 301.833 813.4365 300.871Q816.23 299.909 818.006 299.0025Q819.7819999999999 298.096 820.7624999999999 297.15250000000003Q821.7429999999999 296.209 822.1129999999999 295.247Q822.483 294.285 822.483 293.249Q822.483 292.102 822.039 291.2695Q821.5949999999999 290.437 820.7439999999999 289.956Q819.8929999999999 289.475 818.635 289.475Z M834.582 311.49Q836.395 311.49 837.4680000000001 312.54449999999997Q838.541 313.599 838.541 315.19Q838.541 316.633 837.8565000000001 317.854Q837.172 319.075 835.9695 319.815Q834.767 320.555 833.102 320.555Q831.289 320.555 830.216 319.5005Q829.143 318.446 829.143 316.855Q829.143 315.412 829.8275000000001 314.19100000000003Q830.5120000000001 312.97 831.7330000000001 312.23Q832.9540000000001 311.49 834.582 311.49Z" fill="#FAFAF7"></path><path d="M100.502 414.609 120.223 349.97H123.294L103.57300000000001 414.609ZM91.77 414.609 111.491 349.97H114.599L94.878 414.609ZM101.35300000000001 404.915Q105.867 404.915 108.99350000000001 403.41650000000004Q112.12 401.918 113.7295 399.19849999999997Q115.339 396.479 115.265 392.853Q115.22800000000001 389.819 113.80350000000001 388.006Q112.379 386.193 110.1405 385.0275Q107.902 383.86199999999997 105.4045 382.826Q102.907 381.79 100.7055 380.384Q98.504 378.978 97.09800000000001 376.7395Q95.69200000000001 374.501 95.69200000000001 370.83799999999997Q95.69200000000001 367.878 96.8575 365.288Q98.023 362.698 100.28 360.71849999999995Q102.537 358.739 105.8485 357.6475Q109.16 356.556 113.452 356.556Q117.818 356.556 120.77799999999999 357.407Q123.738 358.258 125.255 359.6825Q126.77199999999999 361.10699999999997 126.77199999999999 362.80899999999997Q126.77199999999999 364.437 125.8655 365.36199999999997Q124.959 366.287 123.553 366.287Q122.443 366.287 121.7585 365.60249999999996Q121.074 364.918 120.4265 363.9375Q119.779 362.957 118.854 361.9765Q117.929 360.996 116.338 360.33Q114.747 359.664 112.083 359.664Q108.457 359.664 105.9225 360.8665Q103.388 362.069 102.0375 364.27049999999997Q100.687 366.472 100.687 369.506Q100.687 372.17 102.1115 373.798Q103.536 375.426 105.7745 376.536Q108.013 377.646 110.51050000000001 378.70050000000003Q113.008 379.755 115.2465 381.2165Q117.485 382.678 118.90950000000001 385.02750000000003Q120.334 387.377 120.334 391.114Q120.334 394.777 118.928 397.885Q117.522 400.993 114.858 403.2685Q112.194 405.544 108.47550000000001 406.802Q104.757 408.06 100.132 408.06Q95.729 408.06 92.71350000000001 407.1905Q89.69800000000001 406.32099999999997 88.1625 404.878Q86.627 403.435 86.627 401.77Q86.627 400.623 87.05250000000001 399.8275Q87.47800000000001 399.032 88.1995 398.625Q88.921 398.218 89.883 398.218Q90.993 398.218 91.696 398.90250000000003Q92.399 399.587 93.04650000000001 400.5675Q93.694 401.548 94.6375 402.547Q95.581 403.546 97.172 404.2305Q98.763 404.915 101.35300000000001 404.915Z M137.835 372.799 135.43 372.355Q137.465 364.622 142.09 360.589Q146.715 356.556 153.079 356.556Q156.89 356.556 159.6465 358.0175Q162.403 359.479 163.9015 362.0875Q165.4 364.696 165.4 368.1Q165.4 370.69 164.623 373.095Q163.846 375.5 161.9775 378.164Q160.10899999999998 380.828 156.8345 384.01Q153.56 387.192 148.639 391.336L131.656 405.359L133.691 402.066H155.891L153.671 402.584L161.589 393.778H163.402L156.557 408.356H155.373L152.043 407.32H127.179L127.66 405.692L146.60399999999998 388.524Q150.378 385.009 152.8385 382.3265Q155.299 379.644 156.668 377.47950000000003Q158.037 375.315 158.59199999999998 373.4835Q159.147 371.652 159.147 369.95Q159.147 366.139 157.0565 363.882Q154.966 361.625 150.859 361.625Q146.567 361.625 143.163 364.0855Q139.759 366.546 137.835 372.799Z M189.74599999999998 362.513 191.59599999999998 361.255 184.01099999999997 376.795 184.89899999999997 373.576Q190.07899999999998 374.76 193.53849999999997 376.351Q196.99799999999996 377.942 199.05149999999998 379.8845Q201.10499999999996 381.827 201.99299999999997 384.084Q202.88099999999997 386.341 202.88099999999997 388.82Q202.88099999999997 393.29699999999997 201.21599999999998 396.8305Q199.551 400.364 196.59099999999998 402.88Q193.63099999999997 405.396 189.70899999999997 406.728Q185.78699999999998 408.06 181.27299999999997 408.06Q176.31499999999997 408.06 173.022 406.5615Q169.72899999999998 405.063 169.72899999999998 402.473Q169.72899999999998 400.919 170.74649999999997 400.0125Q171.76399999999998 399.106 173.24399999999997 399.106Q174.31699999999998 399.106 175.11249999999998 399.67949999999996Q175.908 400.253 176.64799999999997 401.1225Q177.38799999999998 401.992 178.29449999999997 402.88Q179.20099999999996 403.768 180.47749999999996 404.3415Q181.75399999999996 404.915 183.64099999999996 404.915Q186.56399999999996 404.915 189.11699999999996 403.9345Q191.66999999999996 402.954 193.59399999999997 401.10400000000004Q195.51799999999997 399.254 196.59099999999998 396.64549999999997Q197.664 394.037 197.664 390.818Q197.664 388.746 196.86849999999998 386.933Q196.07299999999998 385.12 194.11199999999997 383.529Q192.15099999999998 381.938 188.7285 380.64300000000003Q185.30599999999998 379.348 180.015 378.349L190.52299999999997 357.296H204.47199999999998L214.05499999999998 355.853L210.05899999999997 362.513Z M247.61399999999998 373.983Q250.86999999999998 373.983 253.164 375.33349999999996Q255.45799999999997 376.68399999999997 256.679 379.163Q257.9 381.642 257.9 385.157Q257.9 389.634 256.5125 393.7595Q255.12499999999997 397.885 252.66449999999998 401.104Q250.20399999999995 404.323 246.89249999999996 406.1915Q243.58099999999996 408.06 239.69599999999997 408.06Q236.51399999999995 408.06 234.20149999999995 406.7095Q231.88899999999995 405.359 230.64949999999996 402.8615Q229.40999999999997 400.364 229.40999999999997 396.88599999999997Q229.40999999999997 392.409 230.79749999999996 388.302Q232.18499999999997 384.195 234.664 380.976Q237.14299999999997 377.757 240.45449999999997 375.87Q243.76599999999996 373.983 247.61399999999998 373.983ZM239.80699999999996 405.211Q241.87899999999996 405.211 243.74749999999995 403.953Q245.61599999999996 402.695 247.18849999999998 400.549Q248.76099999999997 398.403 249.92649999999998 395.6465Q251.09199999999996 392.89 251.73949999999996 389.8375Q252.38699999999997 386.78499999999997 252.38699999999997 383.825Q252.38699999999997 380.273 251.20299999999997 378.5525Q250.01899999999998 376.832 247.53999999999996 376.832Q245.46799999999996 376.832 243.58099999999996 378.09000000000003Q241.69399999999996 379.348 240.12149999999997 381.494Q238.54899999999998 383.64 237.38349999999997 386.3965Q236.21799999999996 389.153 235.57049999999998 392.20550000000003Q234.92299999999997 395.258 234.92299999999997 398.255Q234.92299999999997 401.733 236.1255 403.472Q237.32799999999997 405.211 239.80699999999996 405.211Z M288.83199999999994 374.723H293.938L287.01899999999995 398.662Q286.79699999999997 399.476 286.6859999999999 400.12350000000004Q286.57499999999993 400.771 286.57499999999993 401.326Q286.57499999999993 402.73199999999997 287.33349999999996 403.32399999999996Q288.092 403.916 289.53499999999997 403.916Q291.56999999999994 403.916 293.568 402.60249999999996Q295.566 401.289 297.32349999999997 399.1615Q299.08099999999996 397.034 300.46849999999995 394.5365Q301.85599999999994 392.039 302.6329999999999 389.597Q303.40999999999997 387.155 303.40999999999997 385.268Q303.40999999999997 383.86199999999997 302.76249999999993 382.75199999999995Q302.11499999999995 381.642 301.2824999999999 380.77250000000004Q300.44999999999993 379.903 299.80249999999995 379.23699999999997Q299.155 378.57099999999997 299.155 378.09Q299.155 376.055 300.524 375.019Q301.893 373.983 303.52099999999996 373.983Q304.92699999999996 373.983 305.92599999999993 374.649Q306.92499999999995 375.315 307.42449999999997 376.55449999999996Q307.924 377.794 307.924 379.644Q307.924 383.048 306.86949999999996 386.9515Q305.81499999999994 390.855 303.9095 394.592Q302.00399999999996 398.329 299.4694999999999 401.38149999999996Q296.93499999999995 404.43399999999997 293.9934999999999 406.24699999999996Q291.05199999999996 408.06 287.907 408.06Q285.20599999999996 408.06 283.7629999999999 406.8945Q282.31999999999994 405.729 282.31999999999994 402.991Q282.31999999999994 402.029 282.50499999999994 400.8635Q282.68999999999994 399.698 283.05999999999995 398.329L283.948 395.332H284.35499999999996Q282.94899999999996 398.81 281.32099999999997 401.2335Q279.693 403.657 277.97249999999997 405.15549999999996Q276.25199999999995 406.654 274.54999999999995 407.35699999999997Q272.84799999999996 408.06 271.21999999999997 408.06Q268.51899999999995 408.06 266.928 406.543Q265.337 405.026 265.337 402.251Q265.337 400.29 266.15099999999995 397.885L272.7 378.941Q272.55199999999996 378.941 272.441 378.941Q272.33 378.941 272.18199999999996 378.941Q270.66499999999996 378.941 269.2775 379.45899999999995Q267.89 379.977 266.558 381.2535Q265.22599999999994 382.53 263.89399999999995 384.861L262.71 384.38Q263.85699999999997 381.383 265.226 379.3665Q266.59499999999997 377.35 268.149 376.1845Q269.703 375.019 271.4235 374.5195Q273.14399999999995 374.02 274.99399999999997 374.02Q275.69699999999995 374.02 276.4185 374.094Q277.14 374.168 277.8615 374.2975Q278.58299999999997 374.427 279.28599999999994 374.649L271.07199999999995 398.662Q270.84999999999997 399.402 270.72049999999996 400.03099999999995Q270.59099999999995 400.65999999999997 270.59099999999995 401.178Q270.59099999999995 402.54699999999997 271.38649999999996 403.2315Q272.18199999999996 403.916 273.62499999999994 403.916Q275.62299999999993 403.916 277.69499999999994 402.103Q279.76699999999994 400.29 281.54299999999995 397.12649999999996Q283.31899999999996 393.96299999999997 284.46599999999995 389.93Z M329.125 376.795Q326.905 376.795 325.092 378.0345Q323.279 379.274 321.8545 381.346Q320.42999999999995 383.418 319.46799999999996 385.9895Q318.506 388.561 318.00649999999996 391.2435Q317.50699999999995 393.926 317.50699999999995 396.331Q317.50699999999995 400.364 319.07949999999994 402.0105Q320.652 403.657 323.35299999999995 403.657Q325.12899999999996 403.657 326.71999999999997 403.028Q328.311 402.399 329.7725 400.90049999999997Q331.234 399.402 332.60299999999995 396.701H334.971Q333.04699999999997 401.067 331.0675 403.546Q329.08799999999997 406.025 326.8125 407.0425Q324.537 408.06 321.65099999999995 408.06Q318.61699999999996 408.06 316.43399999999997 406.913Q314.251 405.766 313.067 403.509Q311.883 401.252 311.883 397.885Q311.883 393.889 312.84499999999997 390.2815Q313.80699999999996 386.674 315.54599999999994 383.714Q317.28499999999997 380.754 319.57899999999995 378.571Q321.873 376.388 324.5925 375.1855Q327.31199999999995 373.983 330.198 373.983Q333.01 373.983 334.749 374.945Q336.488 375.907 337.302 377.47950000000003Q338.116 379.052 338.116 380.902Q338.116 382.53 337.45 384.1765Q336.784 385.823 335.71099999999996 386.822Q333.38 387.71 331.03049999999996 388.561Q328.681 389.412 326.3315 390.17049999999995Q323.98199999999997 390.929 321.65099999999995 391.63199999999995Q319.32 392.335 316.989 393.001L317.137 390.152Q321.133 389.153 323.9265 388.19100000000003Q326.71999999999997 387.229 328.496 386.3225Q330.272 385.416 331.25249999999994 384.47249999999997Q332.23299999999995 383.529 332.60299999999995 382.567Q332.97299999999996 381.605 332.97299999999996 380.569Q332.97299999999996 379.42199999999997 332.529 378.5895Q332.085 377.757 331.234 377.276Q330.383 376.795 329.125 376.795Z M367.087 380.051Q366.56899999999996 378.793 365.385 377.9605Q364.20099999999996 377.128 362.462 377.128Q359.65 377.128 357.13399999999996 378.8115Q354.61799999999994 380.495 352.54599999999994 383.196Q350.47399999999993 385.897 348.95699999999994 388.9865Q347.43999999999994 392.076 346.60749999999996 394.9435Q345.775 397.811 345.775 399.80899999999997Q345.775 401.622 346.774 402.51Q347.77299999999997 403.39799999999997 349.32699999999994 403.39799999999997Q350.51099999999997 403.39799999999997 352.17599999999993 402.54699999999997Q353.84099999999995 401.69599999999997 355.654 400.179Q357.467 398.662 359.2245 396.62699999999995Q360.98199999999997 394.592 362.40649999999994 392.1685Q363.83099999999996 389.745 364.60799999999995 387.155L372.859 360.404Q372.193 359.849 371.453 359.34950000000003Q370.71299999999997 358.85 369.84349999999995 358.38750000000005Q368.97399999999993 357.925 367.90099999999995 357.555L368.234 356.334L378.92699999999996 354.40999999999997H379.88899999999995L364.164 404.656L363.34999999999997 403.102Q364.645 403.287 366.32849999999996 402.82449999999994Q368.01199999999994 402.36199999999997 369.8805 401.326Q371.74899999999997 400.29 373.56199999999995 398.736L374.70899999999995 400.179Q370.417 404.656 367.346 406.358Q364.275 408.06 361.83299999999997 408.06Q360.09399999999994 408.06 359.37249999999995 407.3385Q358.65099999999995 406.617 359.09499999999997 405.359L363.239 392.927H363.905Q360.871 397.404 358.466 400.327Q356.061 403.25 354.0815 404.91499999999996Q352.102 406.58 350.4185 407.283Q348.73499999999996 407.986 347.181 407.986Q345.03499999999997 407.986 343.42549999999994 407.1905Q341.816 406.395 340.928 404.67449999999997Q340.03999999999996 402.954 340.03999999999996 400.29Q340.03999999999996 397.33 341.1685 393.83349999999996Q342.29699999999997 390.337 344.29499999999996 386.859Q346.29299999999995 383.381 349.03099999999995 380.5135Q351.76899999999995 377.646 354.98799999999994 375.8885Q358.20699999999994 374.131 361.722 374.131Q364.164 374.131 365.69949999999994 375.1115Q367.23499999999996 376.092 368.34499999999997 377.979Z M397.871 377.942 398.46299999999997 374.723H417.92499999999995L417.44399999999996 377.942ZM403.532 398.921Q403.347 399.587 403.2175 400.1235Q403.08799999999997 400.65999999999997 403.014 401.08549999999997Q402.94 401.51099999999997 402.94 401.807Q402.94 402.473 403.1805 402.769Q403.421 403.065 403.86499999999995 403.065Q404.642 403.065 405.99249999999995 402.214Q407.34299999999996 401.363 409.0635 399.7905Q410.784 398.218 412.63399999999996 395.961L414.188 397.219Q412.412 399.698 410.6915 401.6775Q408.971 403.657 407.34299999999996 405.0815Q405.715 406.506 404.2165 407.246Q402.71799999999996 407.986 401.349 407.986Q399.68399999999997 407.986 398.70349999999996 407.024Q397.72299999999996 406.062 397.72299999999996 403.768Q397.72299999999996 402.769 397.94499999999994 401.4Q398.167 400.031 398.685 398.218L407.269 368.063H412.486Z M437.239 373.983Q440.495 373.983 442.789 375.33349999999996Q445.08299999999997 376.68399999999997 446.304 379.163Q447.525 381.642 447.525 385.157Q447.525 389.634 446.1375 393.7595Q444.75 397.885 442.2895 401.104Q439.829 404.323 436.51750000000004 406.1915Q433.206 408.06 429.32099999999997 408.06Q426.139 408.06 423.8265 406.7095Q421.514 405.359 420.2745 402.8615Q419.03499999999997 400.364 419.03499999999997 396.88599999999997Q419.03499999999997 392.409 420.4225 388.302Q421.81 384.195 424.289 380.976Q426.768 377.757 430.0795 375.87Q433.391 373.983 437.239 373.983ZM429.432 405.211Q431.504 405.211 433.3725 403.953Q435.241 402.695 436.8135 400.549Q438.38599999999997 398.403 439.5515 395.6465Q440.717 392.89 441.3645 389.8375Q442.012 386.78499999999997 442.012 383.825Q442.012 380.273 440.828 378.5525Q439.644 376.832 437.165 376.832Q435.093 376.832 433.206 378.09000000000003Q431.319 379.348 429.74649999999997 381.494Q428.174 383.64 427.0085 386.3965Q425.843 389.153 425.19550000000004 392.20550000000003Q424.548 395.258 424.548 398.255Q424.548 401.733 425.7505 403.472Q426.953 405.211 429.432 405.211Z M472.05600000000004 377.942 472.648 374.723H492.11L491.629 377.942ZM477.71700000000004 398.921Q477.53200000000004 399.587 477.40250000000003 400.1235Q477.273 400.65999999999997 477.19900000000007 401.08549999999997Q477.12500000000006 401.51099999999997 477.12500000000006 401.807Q477.12500000000006 402.473 477.36550000000005 402.769Q477.60600000000005 403.065 478.05 403.065Q478.82700000000006 403.065 480.1775 402.214Q481.528 401.363 483.24850000000004 399.7905Q484.96900000000005 398.218 486.819 395.961L488.37300000000005 397.219Q486.59700000000004 399.698 484.8765000000001 401.6775Q483.15600000000006 403.657 481.528 405.0815Q479.90000000000003 406.506 478.40150000000006 407.246Q476.903 407.986 475.53400000000005 407.986Q473.869 407.986 472.8885 407.024Q471.908 406.062 471.908 403.768Q471.908 402.769 472.13 401.4Q472.35200000000003 400.031 472.87000000000006 398.218L481.45400000000006 368.063H486.67100000000005Z M499.39900000000006 398.625 496.77200000000005 407.32H491.48100000000005L505.61500000000007 360.404Q504.94900000000007 359.849 504.19050000000004 359.34950000000003Q503.4320000000001 358.85 502.56250000000006 358.38750000000005Q501.69300000000004 357.925 500.62000000000006 357.555L500.95300000000003 356.334L511.6460000000001 354.40999999999997H512.6450000000001L501.50800000000004 389.449L501.36000000000007 389.375Q503.1360000000001 386.156 505.13400000000007 383.3625Q507.13200000000006 380.569 509.25950000000006 378.497Q511.38700000000006 376.425 513.681 375.2595Q515.975 374.094 518.306 374.094Q521.5250000000001 374.094 522.8015 375.5Q524.0780000000001 376.906 524.0780000000001 379.126Q524.0780000000001 380.347 523.6895000000001 381.90099999999995Q523.301 383.455 522.524 385.416L515.013 404.61899999999997L514.9390000000001 403.065Q516.2710000000001 403.102 517.8435000000001 402.60249999999996Q519.416 402.103 521.1365000000001 401.10400000000004Q522.8570000000001 400.105 524.5590000000001 398.736L525.7800000000001 400.179Q522.9680000000001 403.176 520.5815 404.91499999999996Q518.195 406.654 516.2155 407.35699999999997Q514.2360000000001 408.06 512.4970000000001 408.06Q510.1290000000001 408.06 509.55550000000005 407.30150000000003Q508.982 406.543 509.8330000000001 404.36L517.825 384.158Q518.195 383.159 518.417 382.345Q518.639 381.531 518.639 380.902Q518.639 379.903 517.9915000000001 379.3295Q517.344 378.756 515.716 378.756Q513.7550000000001 378.756 511.4425000000001 380.30999999999995Q509.13000000000005 381.864 506.836 384.6205Q504.54200000000003 387.377 502.59950000000003 390.9845Q500.65700000000004 394.592 499.39900000000006 398.625Z M547.1290000000001 376.795Q544.9090000000001 376.795 543.0960000000001 378.0345Q541.2830000000001 379.274 539.8585 381.346Q538.4340000000001 383.418 537.4720000000001 385.9895Q536.5100000000001 388.561 536.0105000000001 391.2435Q535.5110000000001 393.926 535.5110000000001 396.331Q535.5110000000001 400.364 537.0835000000001 402.0105Q538.6560000000001 403.657 541.3570000000001 403.657Q543.1330000000002 403.657 544.7240000000002 403.028Q546.315 402.399 547.7765 400.90049999999997Q549.238 399.402 550.6070000000001 396.701H552.9750000000001Q551.0510000000002 401.067 549.0715000000001 403.546Q547.0920000000001 406.025 544.8165000000001 407.0425Q542.541 408.06 539.6550000000001 408.06Q536.6210000000001 408.06 534.4380000000001 406.913Q532.2550000000001 405.766 531.0710000000001 403.509Q529.8870000000001 401.252 529.8870000000001 397.885Q529.8870000000001 393.889 530.8490000000002 390.2815Q531.8110000000001 386.674 533.5500000000002 383.714Q535.2890000000001 380.754 537.5830000000001 378.571Q539.8770000000001 376.388 542.5965000000001 375.1855Q545.3160000000001 373.983 548.2020000000001 373.983Q551.0140000000001 373.983 552.7530000000002 374.945Q554.4920000000001 375.907 555.306 377.47950000000003Q556.1200000000001 379.052 556.1200000000001 380.902Q556.1200000000001 382.53 555.4540000000002 384.1765Q554.7880000000001 385.823 553.7150000000001 386.822Q551.3840000000001 387.71 549.0345000000001 388.561Q546.6850000000001 389.412 544.3355000000001 390.17049999999995Q541.9860000000001 390.929 539.6550000000001 391.63199999999995Q537.3240000000001 392.335 534.9930000000002 393.001L535.1410000000001 390.152Q539.1370000000001 389.153 541.9305000000002 388.19100000000003Q544.7240000000002 387.229 546.5000000000001 386.3225Q548.2760000000001 385.416 549.2565000000001 384.47249999999997Q550.2370000000001 383.529 550.6070000000001 382.567Q550.9770000000001 381.605 550.9770000000001 380.569Q550.9770000000001 379.42199999999997 550.5330000000001 378.5895Q550.089 377.757 549.238 377.276Q548.3870000000001 376.795 547.1290000000001 376.795Z M586.3860000000001 378.941Q586.238 378.941 586.1270000000001 378.941Q586.0160000000001 378.941 585.8680000000002 378.941Q584.3510000000001 378.941 582.9820000000001 379.45899999999995Q581.613 379.977 580.2810000000001 381.2535Q578.9490000000001 382.53 577.5800000000002 384.861L576.4330000000001 384.38Q577.8760000000001 380.347 579.7075000000001 378.1085Q581.5390000000001 375.87 583.6850000000002 374.945Q585.8310000000001 374.02 588.1250000000001 374.02Q588.8280000000001 374.02 589.4940000000001 374.094Q590.1600000000001 374.168 590.8445000000002 374.2975Q591.5290000000001 374.427 592.1580000000001 374.649L587.9400000000002 388.08H588.0140000000001Q590.6040000000002 383.122 592.9350000000002 380.014Q595.2660000000001 376.906 597.5415 375.4445Q599.8170000000001 373.983 602.1480000000001 373.983Q604.4050000000001 373.983 605.441 375.05600000000004Q606.4770000000001 376.129 606.4770000000001 377.757Q606.4770000000001 379.089 605.8110000000001 380.1065Q605.1450000000001 381.124 604.1275 381.679Q603.1100000000001 382.234 602.0370000000001 382.234Q601.7780000000001 382.234 601.3895000000001 381.90099999999995Q601.0010000000001 381.568 600.4460000000001 380.865Q599.9280000000001 380.125 599.4100000000001 379.6995Q598.8920000000002 379.274 598.3740000000001 379.274Q597.3750000000001 379.274 596.1170000000002 380.199Q594.8590000000002 381.124 593.5085000000001 382.789Q592.1580000000001 384.454 590.8260000000001 386.72950000000003Q589.4940000000001 389.005 588.2915000000002 391.706Q587.0890000000002 394.407 586.1640000000001 397.404L583.1300000000001 407.32H577.8020000000001Z M624.1630000000001 373.983Q627.4190000000001 373.983 629.7130000000001 375.33349999999996Q632.0070000000001 376.68399999999997 633.2280000000001 379.163Q634.4490000000001 381.642 634.4490000000001 385.157Q634.4490000000001 389.634 633.0615 393.7595Q631.6740000000001 397.885 629.2135000000001 401.104Q626.753 404.323 623.4415000000001 406.1915Q620.1300000000001 408.06 616.2450000000001 408.06Q613.0630000000001 408.06 610.7505000000001 406.7095Q608.4380000000001 405.359 607.1985000000001 402.8615Q605.9590000000001 400.364 605.9590000000001 396.88599999999997Q605.9590000000001 392.409 607.3465000000001 388.302Q608.734 384.195 611.2130000000001 380.976Q613.6920000000001 377.757 617.0035 375.87Q620.315 373.983 624.1630000000001 373.983ZM616.3560000000001 405.211Q618.4280000000001 405.211 620.2965000000002 403.953Q622.1650000000001 402.695 623.7375000000001 400.549Q625.3100000000001 398.403 626.4755 395.6465Q627.6410000000001 392.89 628.2885000000001 389.8375Q628.936 386.78499999999997 628.936 383.825Q628.936 380.273 627.7520000000001 378.5525Q626.5680000000001 376.832 624.089 376.832Q622.017 376.832 620.1300000000001 378.09000000000003Q618.243 379.348 616.6705000000001 381.494Q615.0980000000001 383.64 613.9325000000001 386.3965Q612.767 389.153 612.1195 392.20550000000003Q611.4720000000001 395.258 611.4720000000001 398.255Q611.4720000000001 401.733 612.6745000000001 403.472Q613.8770000000001 405.211 616.3560000000001 405.211Z M657.5370000000001 373.983Q660.7930000000001 373.983 663.0870000000001 375.33349999999996Q665.3810000000001 376.68399999999997 666.6020000000001 379.163Q667.8230000000001 381.642 667.8230000000001 385.157Q667.8230000000001 389.634 666.4355 393.7595Q665.0480000000001 397.885 662.5875000000001 401.104Q660.1270000000001 404.323 656.8155000000002 406.1915Q653.5040000000001 408.06 649.6190000000001 408.06Q646.4370000000001 408.06 644.1245000000001 406.7095Q641.8120000000001 405.359 640.5725000000001 402.8615Q639.3330000000001 400.364 639.3330000000001 396.88599999999997Q639.3330000000001 392.409 640.7205000000001 388.302Q642.1080000000001 384.195 644.5870000000001 380.976Q647.0660000000001 377.757 650.3775 375.87Q653.6890000000001 373.983 657.5370000000001 373.983ZM649.7300000000001 405.211Q651.8020000000001 405.211 653.6705000000002 403.953Q655.5390000000001 402.695 657.1115000000001 400.549Q658.6840000000001 398.403 659.8495 395.6465Q661.0150000000001 392.89 661.6625000000001 389.8375Q662.3100000000001 386.78499999999997 662.3100000000001 383.825Q662.3100000000001 380.273 661.1260000000001 378.5525Q659.9420000000001 376.832 657.4630000000001 376.832Q655.3910000000001 376.832 653.5040000000001 378.09000000000003Q651.6170000000001 379.348 650.0445000000001 381.494Q648.4720000000001 383.64 647.3065000000001 386.3965Q646.1410000000001 389.153 645.4935 392.20550000000003Q644.8460000000001 395.258 644.8460000000001 398.255Q644.8460000000001 401.733 646.0485000000001 403.472Q647.2510000000001 405.211 649.7300000000001 405.211Z M714.4800000000001 404.61899999999997 714.4060000000002 403.065Q715.7010000000001 403.102 717.2735000000001 402.60249999999996Q718.8460000000001 402.103 720.5850000000002 401.10400000000004Q722.3240000000002 400.105 724.0260000000002 398.736L725.2470000000002 400.179Q722.3980000000001 403.176 720.0115000000001 404.91499999999996Q717.6250000000001 406.654 715.6640000000001 407.35699999999997Q713.7030000000001 408.06 711.9640000000002 408.06Q709.5590000000001 408.06 708.9855000000001 407.30150000000003Q708.4120000000001 406.543 709.3000000000002 404.36L717.2920000000001 384.01Q717.6620000000001 383.048 717.8655000000001 382.2895Q718.0690000000002 381.531 718.0690000000002 380.902Q718.0690000000002 379.903 717.4400000000002 379.348Q716.8110000000001 378.793 715.2570000000002 378.793Q713.4070000000002 378.793 711.2980000000001 380.236Q709.1890000000001 381.679 707.0985000000001 384.23199999999997Q705.0080000000002 386.78499999999997 703.1395000000002 390.17049999999995Q701.2710000000002 393.556 699.9020000000002 397.441L696.7570000000002 407.32H691.3180000000001L699.0140000000001 384.01Q699.2730000000001 383.344 699.4210000000002 382.789Q699.5690000000002 382.234 699.6430000000001 381.77149999999995Q699.7170000000001 381.30899999999997 699.7170000000001 380.902Q699.7170000000001 379.903 699.1065000000001 379.348Q698.4960000000001 378.793 696.9790000000002 378.793Q695.0920000000001 378.793 692.9645 380.32849999999996Q690.8370000000001 381.864 688.7835000000001 384.58349999999996Q686.7300000000001 387.303 684.9355 390.91049999999996Q683.1410000000001 394.518 681.8830000000002 398.625L679.1820000000001 407.32H673.8540000000002L682.4380000000001 378.941Q682.2900000000002 378.941 682.1790000000001 378.941Q682.0680000000001 378.941 681.9200000000002 378.941Q680.4030000000001 378.941 679.0340000000001 379.45899999999995Q677.6650000000002 379.977 676.3330000000001 381.2535Q675.0010000000001 382.53 673.6320000000002 384.861L672.4850000000001 384.38Q673.9280000000001 380.347 675.7595000000001 378.1085Q677.5910000000001 375.87 679.7370000000001 374.945Q681.8830000000002 374.02 684.1770000000001 374.02Q684.8800000000001 374.02 685.546 374.094Q686.2120000000001 374.168 686.8780000000002 374.2975Q687.5440000000001 374.427 688.2100000000002 374.649L683.5850000000002 389.375Q686.1010000000001 384.824 688.2285000000002 381.827Q690.3560000000001 378.83 692.2430000000002 377.128Q694.1300000000001 375.426 695.8875 374.7045Q697.6450000000001 373.983 699.3840000000001 373.983Q702.4180000000001 373.983 703.6575000000001 375.16700000000003Q704.8970000000002 376.351 704.8970000000002 378.275Q704.8970000000002 379.57 704.4530000000002 381.272Q704.0090000000001 382.974 703.2690000000001 385.342L702.4550000000002 387.895H702.4180000000001Q704.6380000000001 383.973 706.6545000000001 381.2905Q708.6710000000002 378.608 710.5580000000002 376.99850000000004Q712.4450000000002 375.389 714.2765000000002 374.6675Q716.1080000000002 373.946 717.9210000000002 373.946Q720.9920000000002 373.946 722.2870000000001 375.204Q723.5820000000001 376.462 723.5820000000001 378.57099999999997Q723.5820000000001 379.829 723.1750000000002 381.494Q722.7680000000001 383.159 721.8800000000001 385.49Z M733.1280000000002 398.81Q734.9410000000001 398.81 736.0140000000001 399.8645Q737.0870000000002 400.919 737.0870000000002 402.51Q737.0870000000002 403.953 736.4025000000001 405.174Q735.7180000000002 406.395 734.5155000000002 407.135Q733.3130000000002 407.875 731.6480000000001 407.875Q729.8350000000002 407.875 728.7620000000002 406.82050000000004Q727.6890000000002 405.766 727.6890000000002 404.175Q727.6890000000002 402.73199999999997 728.3735000000001 401.51099999999997Q729.0580000000002 400.29 730.2790000000002 399.55Q731.5000000000002 398.81 733.1280000000002 398.81Z" fill="#FAFAF7"></path><path d="M85.444 566.0V552.13H89.833Q91.22 552.13 92.2365 552.643Q93.253 553.156 93.82300000000001 554.0775Q94.393 554.999 94.393 556.253Q94.393 557.621 93.6995 558.6659999999999Q93.006 559.711 91.828 560.148L94.583 566.0H91.923L89.51 560.49H87.819V566.0ZM87.819 558.4H89.833Q90.84 558.4 91.41 557.8489999999999Q91.98 557.298 91.98 556.329Q91.98 555.341 91.41 554.7805000000001Q90.84 554.22 89.833 554.22H87.819Z M98.592 566.0V552.13H106.914V554.201H100.929V557.811H106.249V559.863H100.929V563.929H106.914V566.0Z M110.50500000000001 566.0 114.001 552.13H117.06L120.575 566.0H118.143L117.38300000000001 562.637H113.697L112.937 566.0ZM114.134 560.699H116.946L116.11 556.975Q115.90100000000001 556.044 115.74900000000001 555.2935Q115.59700000000001 554.543 115.54 554.201Q115.483 554.543 115.3405 555.2935Q115.19800000000001 556.044 114.97 556.956Z M124.185 566.0V552.13H128.308Q129.714 552.13 130.7495 552.662Q131.785 553.194 132.35500000000002 554.163Q132.925 555.132 132.925 556.462V561.649Q132.925 562.96 132.35500000000002 563.9385Q131.785 564.917 130.7495 565.4585Q129.714 566.0 128.308 566.0ZM126.56 563.815H128.308Q129.334 563.815 129.942 563.2355Q130.55 562.656 130.55 561.649V556.462Q130.55 555.474 129.942 554.8945000000001Q129.334 554.315 128.308 554.315H126.56Z M153.103 566.0V554.334H149.474V552.13H159.126V554.334H155.49699999999999V566.0Z M162.98299999999998 566.0V552.13H165.35799999999998V557.697H169.082V552.13H171.457V566.0H169.082V559.901H165.35799999999998V566.0Z M176.11199999999997 566.0V552.13H184.43399999999997V554.201H178.44899999999996V557.811H183.76899999999998V559.863H178.44899999999996V563.929H184.43399999999997V566.0Z M201.72399999999993 566.0V552.13H206.11299999999994Q207.49999999999994 552.13 208.51649999999995 552.643Q209.53299999999996 553.156 210.10299999999995 554.0775Q210.67299999999994 554.999 210.67299999999994 556.253Q210.67299999999994 557.621 209.97949999999994 558.6659999999999Q209.28599999999994 559.711 208.10799999999995 560.148L210.86299999999994 566.0H208.20299999999995L205.78999999999994 560.49H204.09899999999993V566.0ZM204.09899999999993 558.4H206.11299999999994Q207.11999999999995 558.4 207.68999999999994 557.8489999999999Q208.25999999999993 557.298 208.25999999999993 556.329Q208.25999999999993 555.341 207.68999999999994 554.7805000000001Q207.11999999999995 554.22 206.11299999999994 554.22H204.09899999999993Z M214.87199999999993 566.0V552.13H223.19399999999993V554.201H217.20899999999995V557.811H222.52899999999994V559.863H217.20899999999995V563.929H223.19399999999993V566.0Z M227.5829999999999 566.0V552.13H232.19999999999993Q233.58699999999993 552.13 234.62249999999995 552.662Q235.65799999999993 553.194 236.22799999999992 554.1535Q236.79799999999992 555.113 236.79799999999992 556.405Q236.79799999999992 557.678 236.21849999999992 558.6469999999999Q235.63899999999992 559.616 234.61299999999994 560.1479999999999Q233.58699999999993 560.68 232.19999999999993 560.68H229.9579999999999V566.0ZM229.9579999999999 558.533H232.19999999999993Q233.18799999999993 558.533 233.78649999999993 557.9535000000001Q234.38499999999993 557.374 234.38499999999993 556.405Q234.38499999999993 555.417 233.78649999999993 554.847Q233.18799999999993 554.277 232.19999999999993 554.277H229.9579999999999Z M244.7399999999999 566.19Q243.4099999999999 566.19 242.43149999999991 565.6865Q241.45299999999992 565.183 240.9304999999999 564.2615000000001Q240.4079999999999 563.34 240.4079999999999 562.086V556.044Q240.4079999999999 554.79 240.9304999999999 553.8685Q241.45299999999992 552.947 242.43149999999991 552.4435000000001Q243.4099999999999 551.94 244.7399999999999 551.94Q246.0889999999999 551.94 247.0579999999999 552.4435000000001Q248.0269999999999 552.947 248.5494999999999 553.8685Q249.07199999999992 554.79 249.07199999999992 556.025V562.086Q249.07199999999992 563.34 248.5494999999999 564.2615000000001Q248.0269999999999 565.183 247.0579999999999 565.6865Q246.0889999999999 566.19 244.7399999999999 566.19ZM244.7399999999999 564.1Q245.70899999999992 564.1 246.20299999999992 563.5775Q246.69699999999992 563.055 246.69699999999992 562.086V556.044Q246.69699999999992 555.056 246.20299999999992 554.543Q245.70899999999992 554.03 244.7399999999999 554.03Q243.7709999999999 554.03 243.2769999999999 554.543Q242.7829999999999 555.056 242.7829999999999 556.044V562.086Q242.7829999999999 563.055 243.2864999999999 563.5775Q243.7899999999999 564.1 244.7399999999999 564.1Z M253.40399999999988 566.0V552.13H257.7929999999999Q259.1799999999999 552.13 260.1964999999999 552.643Q261.2129999999999 553.156 261.7829999999999 554.0775Q262.3529999999999 554.999 262.3529999999999 556.253Q262.3529999999999 557.621 261.65949999999987 558.6659999999999Q260.9659999999999 559.711 259.7879999999999 560.148L262.5429999999999 566.0H259.88299999999987L257.4699999999999 560.49H255.77899999999988V566.0ZM255.77899999999988 558.4H257.7929999999999Q258.7999999999999 558.4 259.3699999999999 557.8489999999999Q259.9399999999999 557.298 259.9399999999999 556.329Q259.9399999999999 555.341 259.3699999999999 554.7805000000001Q258.7999999999999 554.22 257.7929999999999 554.22H255.77899999999988Z M269.38299999999987 566.0V554.334H265.7539999999999V552.13H275.4059999999999V554.334H271.7769999999999V566.0Z" fill="#FAFAF7"></path><rect x="1060" y="560" width="56" height="5" fill="#FAFAF7"></rect></svg>